<svg xmlns="http://www.w3.org/2000/svg" xmlns:xlink="http://www.w3.org/1999/xlink" width="40" zoomAndPan="magnify" viewBox="0 0 30 30.000001" height="40" preserveAspectRatio="xMidYMid meet" version="1.0"><defs><clipPath id="e9dd9a9720"><path d="M 9 19 L 21.515625 19 L 21.515625 22.871094 L 9 22.871094 Z M 9 19 " clip-rule="nonzero"/></clipPath><clipPath id="c1c9314e2a"><path d="M 9 17 L 21.515625 17 L 21.515625 22 L 9 22 Z M 9 17 " clip-rule="nonzero"/></clipPath><clipPath id="35b6e64e15"><path d="M 19 20 L 20 20 L 20 22.871094 L 19 22.871094 Z M 19 20 " clip-rule="nonzero"/></clipPath><clipPath id="37444359d1"><path d="M 19 21 L 20 21 L 20 22.871094 L 19 22.871094 Z M 19 21 " clip-rule="nonzero"/></clipPath><clipPath id="fc97105321"><path d="M 18 21 L 19 21 L 19 22.871094 L 18 22.871094 Z M 18 21 " clip-rule="nonzero"/></clipPath><clipPath id="b0c6e90df1"><path d="M 17 21 L 18 21 L 18 22.871094 L 17 22.871094 Z M 17 21 " clip-rule="nonzero"/></clipPath><clipPath id="8f7d7e50db"><path d="M 12 21 L 13 21 L 13 22.871094 L 12 22.871094 Z M 12 21 " clip-rule="nonzero"/></clipPath><clipPath id="b6280dbc81"><path d="M 11 21 L 13 21 L 13 22.871094 L 11 22.871094 Z M 11 21 " clip-rule="nonzero"/></clipPath><clipPath id="e19e9fb5d9"><path d="M 11 21 L 12 21 L 12 22.871094 L 11 22.871094 Z M 11 21 " clip-rule="nonzero"/></clipPath><clipPath id="2ee2f831ab"><path d="M 14 21 L 15 21 L 15 22.871094 L 14 22.871094 Z M 14 21 " clip-rule="nonzero"/></clipPath><clipPath id="8d1f9e5678"><path d="M 13 21 L 15 21 L 15 22.871094 L 13 22.871094 Z M 13 21 " clip-rule="nonzero"/></clipPath><clipPath id="ad7f625fdf"><path d="M 14 21 L 15 21 L 15 22.871094 L 14 22.871094 Z M 14 21 " clip-rule="nonzero"/></clipPath><clipPath id="7c9fe354ac"><path d="M 14 21 L 16 21 L 16 22.871094 L 14 22.871094 Z M 14 21 " clip-rule="nonzero"/></clipPath><clipPath id="63ab33c730"><path d="M 15 21 L 16 21 L 16 22.871094 L 15 22.871094 Z M 15 21 " clip-rule="nonzero"/></clipPath><clipPath id="c07089412f"><path d="M 16 21 L 17 21 L 17 22.871094 L 16 22.871094 Z M 16 21 " clip-rule="nonzero"/></clipPath><clipPath id="39567e2850"><path d="M 17 21 L 18 21 L 18 22.871094 L 17 22.871094 Z M 17 21 " clip-rule="nonzero"/></clipPath><clipPath id="bd54783e5c"><path d="M 13 21 L 14 21 L 14 22.871094 L 13 22.871094 Z M 13 21 " clip-rule="nonzero"/></clipPath><clipPath id="fa018947ff"><path d="M 12 21 L 14 21 L 14 22.871094 L 12 22.871094 Z M 12 21 " clip-rule="nonzero"/></clipPath><clipPath id="0caeced360"><path d="M 10 21 L 12 21 L 12 22.871094 L 10 22.871094 Z M 10 21 " clip-rule="nonzero"/></clipPath><clipPath id="a4a33de977"><path d="M 10 20 L 11 20 L 11 22.871094 L 10 22.871094 Z M 10 20 " clip-rule="nonzero"/></clipPath><clipPath id="c69c210f91"><path d="M 9 17 L 21.515625 17 L 21.515625 22 L 9 22 Z M 9 17 " clip-rule="nonzero"/></clipPath><clipPath id="b4587b5a85"><path d="M 9 15 L 21.515625 15 L 21.515625 20 L 9 20 Z M 9 15 " clip-rule="nonzero"/></clipPath><clipPath id="13f1ea99bf"><path d="M 20 18 L 21.515625 18 L 21.515625 20 L 20 20 Z M 20 18 " clip-rule="nonzero"/></clipPath><clipPath id="40bd96a69f"><path d="M 8.453125 16 L 21 16 L 21 20 L 8.453125 20 Z M 8.453125 16 " clip-rule="nonzero"/></clipPath><clipPath id="5ba1e85a11"><path d="M 8.453125 13 L 21 13 L 21 19 L 8.453125 19 Z M 8.453125 13 " clip-rule="nonzero"/></clipPath><clipPath id="0501ee3953"><path d="M 8.453125 16 L 10 16 L 10 18 L 8.453125 18 Z M 8.453125 16 " clip-rule="nonzero"/></clipPath><clipPath id="13a7856520"><path d="M 9 13 L 21.515625 13 L 21.515625 18 L 9 18 Z M 9 13 " clip-rule="nonzero"/></clipPath><clipPath id="2476cfbe69"><path d="M 9 11 L 21.515625 11 L 21.515625 16 L 9 16 Z M 9 11 " clip-rule="nonzero"/></clipPath><clipPath id="e217f82e68"><path d="M 20 14 L 21.515625 14 L 21.515625 16 L 20 16 Z M 20 14 " clip-rule="nonzero"/></clipPath><clipPath id="0f002f57a6"><path d="M 21 14 L 21.515625 14 L 21.515625 16 L 21 16 Z M 21 14 " clip-rule="nonzero"/></clipPath><clipPath id="cfac947c16"><path d="M 8.453125 11 L 21 11 L 21 16 L 8.453125 16 Z M 8.453125 11 " clip-rule="nonzero"/></clipPath><clipPath id="e3f03ade42"><path d="M 8.453125 9 L 21 9 L 21 14 L 8.453125 14 Z M 8.453125 9 " clip-rule="nonzero"/></clipPath><clipPath id="8b6bdcb020"><path d="M 8.453125 12 L 10 12 L 10 15 L 8.453125 15 Z M 8.453125 12 " clip-rule="nonzero"/></clipPath><clipPath id="eb6936b653"><path d="M 8.453125 12 L 9 12 L 9 14 L 8.453125 14 Z M 8.453125 12 " clip-rule="nonzero"/></clipPath><clipPath id="0e49a92f05"><path d="M 8.453125 10 L 21 10 L 21 14 L 8.453125 14 Z M 8.453125 10 " clip-rule="nonzero"/></clipPath><clipPath id="577af184cb"><path d="M 8.453125 8 L 21 8 L 21 13 L 8.453125 13 Z M 8.453125 8 " clip-rule="nonzero"/></clipPath><clipPath id="adfd634c44"><path d="M 8.453125 10 L 10 10 L 10 13 L 8.453125 13 Z M 8.453125 10 " clip-rule="nonzero"/></clipPath><clipPath id="4396556b3f"><path d="M 9 8 L 21.515625 8 L 21.515625 12 L 9 12 Z M 9 8 " clip-rule="nonzero"/></clipPath><clipPath id="961d0eb92b"><path d="M 9 6.175781 L 21.515625 6.175781 L 21.515625 11 L 9 11 Z M 9 6.175781 " clip-rule="nonzero"/></clipPath><clipPath id="9fec1a3fe8"><path d="M 13 6.175781 L 18 6.175781 L 18 10 L 13 10 Z M 13 6.175781 " clip-rule="nonzero"/></clipPath><clipPath id="36871d3bea"><path d="M 20 9 L 21.515625 9 L 21.515625 11 L 20 11 Z M 20 9 " clip-rule="nonzero"/></clipPath><clipPath id="65616827f1"><path d="M 21 8 L 21.515625 8 L 21.515625 11 L 21 11 Z M 21 8 " clip-rule="nonzero"/></clipPath></defs><g clip-path="url(#e9dd9a9720)"><path fill="#f89e19" d="M 21.046875 20.765625 L 21.046875 19.511719 L 9.140625 19.511719 L 9.140625 20.765625 C 9.140625 21.925781 11.804688 22.867188 15.09375 22.867188 C 18.382812 22.867188 21.046875 21.925781 21.046875 20.765625 " fill-opacity="1" fill-rule="nonzero"/></g><g clip-path="url(#c1c9314e2a)"><path fill="#f5c116" d="M 15.09375 21.523438 C 11.804688 21.523438 9.140625 20.582031 9.140625 19.421875 C 9.140625 18.257812 11.804688 17.320312 15.09375 17.320312 C 18.382812 17.320312 21.046875 18.257812 21.046875 19.421875 C 21.046875 20.582031 18.382812 21.523438 15.09375 21.523438 " fill-opacity="1" fill-rule="nonzero"/></g><path fill="#f89e19" d="M 15.453125 20.242188 C 15.691406 20.226562 15.886719 20.1875 16.035156 20.125 C 16.183594 20.0625 16.261719 19.988281 16.261719 19.902344 C 16.261719 19.828125 16.199219 19.761719 16.070312 19.707031 C 15.945312 19.65625 15.738281 19.613281 15.453125 19.582031 L 15.453125 20.242188 M 14.761719 18.445312 C 14.570312 18.46875 14.421875 18.507812 14.3125 18.5625 C 14.199219 18.617188 14.144531 18.675781 14.144531 18.738281 C 14.144531 18.800781 14.195312 18.855469 14.296875 18.90625 C 14.398438 18.957031 14.550781 19 14.761719 19.03125 L 14.761719 18.445312 M 14.761719 20.21875 L 14.761719 19.511719 C 14.136719 19.449219 13.679688 19.351562 13.386719 19.226562 C 13.09375 19.097656 12.949219 18.941406 12.949219 18.761719 C 12.949219 18.574219 13.113281 18.421875 13.445312 18.296875 C 13.773438 18.171875 14.210938 18.097656 14.761719 18.078125 L 14.761719 17.910156 L 15.453125 17.910156 L 15.453125 18.078125 C 15.957031 18.101562 16.359375 18.160156 16.660156 18.261719 C 16.960938 18.363281 17.152344 18.496094 17.234375 18.667969 L 16.027344 18.722656 C 15.953125 18.589844 15.761719 18.5 15.453125 18.453125 L 15.453125 19.109375 C 16.21875 19.183594 16.738281 19.277344 17.015625 19.394531 C 17.292969 19.511719 17.429688 19.660156 17.429688 19.84375 C 17.429688 20.046875 17.257812 20.21875 16.90625 20.359375 C 16.558594 20.496094 16.074219 20.582031 15.453125 20.613281 L 15.453125 20.929688 L 14.761719 20.929688 L 14.761719 20.621094 C 14.207031 20.597656 13.761719 20.527344 13.417969 20.40625 C 13.074219 20.28125 12.855469 20.113281 12.757812 19.890625 L 14.003906 19.84375 C 14.054688 19.933594 14.152344 20.011719 14.292969 20.078125 C 14.429688 20.140625 14.585938 20.1875 14.761719 20.21875 " fill-opacity="1" fill-rule="nonzero"/><path fill="#e98b1b" d="M 20.375 21.609375 L 20.375 20.472656 C 20.445312 20.421875 20.511719 20.375 20.570312 20.324219 L 20.570312 21.449219 C 20.511719 21.503906 20.445312 21.554688 20.375 21.609375 " fill-opacity="1" fill-rule="nonzero"/><path fill="#e98b1b" d="M 20.078125 21.796875 C 20.054688 21.789062 20.039062 21.78125 20.039062 21.769531 L 20.039062 20.671875 C 20.105469 20.636719 20.171875 20.597656 20.234375 20.558594 L 20.234375 21.703125 C 20.183594 21.734375 20.132812 21.765625 20.078125 21.796875 " fill-opacity="1" fill-rule="nonzero"/><path fill="#e98b1b" d="M 20.710938 21.308594 L 20.710938 20.199219 C 20.789062 20.121094 20.855469 20.039062 20.90625 19.953125 L 20.90625 20.988281 C 20.863281 21.097656 20.796875 21.203125 20.710938 21.308594 " fill-opacity="1" fill-rule="nonzero"/><path fill="#e98b1b" d="M 19.753906 21.960938 C 19.722656 21.957031 19.703125 21.945312 19.703125 21.933594 L 19.703125 20.832031 C 19.769531 20.800781 19.835938 20.769531 19.898438 20.742188 L 19.898438 21.890625 C 19.851562 21.917969 19.804688 21.941406 19.753906 21.960938 " fill-opacity="1" fill-rule="nonzero"/><g clip-path="url(#35b6e64e15)"><path fill="#e98b1b" d="M 19.382812 22.117188 C 19.375 22.109375 19.367188 22.105469 19.367188 22.097656 L 19.367188 20.964844 C 19.433594 20.9375 19.5 20.914062 19.5625 20.886719 L 19.5625 22.046875 C 19.503906 22.070312 19.445312 22.09375 19.382812 22.117188 " fill-opacity="1" fill-rule="nonzero"/></g><g clip-path="url(#37444359d1)"><path fill="#e98b1b" d="M 19.03125 22.238281 L 19.03125 21.074219 C 19.097656 21.054688 19.164062 21.035156 19.226562 21.011719 L 19.226562 22.175781 C 19.164062 22.195312 19.097656 22.21875 19.03125 22.238281 " fill-opacity="1" fill-rule="nonzero"/></g><g clip-path="url(#fc97105321)"><path fill="#e98b1b" d="M 18.695312 22.339844 L 18.695312 21.175781 C 18.761719 21.15625 18.828125 21.136719 18.890625 21.117188 L 18.890625 22.28125 C 18.828125 22.300781 18.761719 22.320312 18.695312 22.339844 " fill-opacity="1" fill-rule="nonzero"/><path fill="#e98b1b" d="M 18.359375 22.425781 L 18.359375 21.257812 C 18.425781 21.242188 18.492188 21.226562 18.554688 21.210938 L 18.554688 22.375 C 18.492188 22.394531 18.425781 22.410156 18.359375 22.425781 " fill-opacity="1" fill-rule="nonzero"/><path fill="#e98b1b" d="M 18.023438 22.5 L 18.023438 21.328125 C 18.089844 21.316406 18.15625 21.304688 18.21875 21.289062 L 18.21875 22.457031 C 18.15625 22.472656 18.089844 22.484375 18.023438 22.5 " fill-opacity="1" fill-rule="nonzero"/></g><g clip-path="url(#b0c6e90df1)"><path fill="#e98b1b" d="M 17.6875 22.5625 L 17.6875 21.390625 C 17.753906 21.378906 17.820312 21.371094 17.882812 21.355469 L 17.882812 22.527344 C 17.820312 22.539062 17.753906 22.550781 17.6875 22.5625 " fill-opacity="1" fill-rule="nonzero"/><path fill="#e98b1b" d="M 17.351562 22.617188 L 17.351562 21.445312 C 17.417969 21.4375 17.484375 21.425781 17.546875 21.414062 L 17.546875 22.585938 C 17.484375 22.597656 17.417969 22.605469 17.351562 22.617188 " fill-opacity="1" fill-rule="nonzero"/></g><g clip-path="url(#8f7d7e50db)"><path fill="#e98b1b" d="M 12.835938 22.617188 C 12.769531 22.605469 12.707031 22.597656 12.640625 22.585938 L 12.640625 21.414062 C 12.707031 21.425781 12.769531 21.4375 12.835938 21.445312 L 12.835938 22.617188 " fill-opacity="1" fill-rule="nonzero"/><path fill="#e98b1b" d="M 12.5 22.5625 C 12.433594 22.550781 12.371094 22.539062 12.304688 22.527344 L 12.304688 21.355469 C 12.371094 21.371094 12.433594 21.378906 12.5 21.390625 L 12.5 22.5625 " fill-opacity="1" fill-rule="nonzero"/></g><g clip-path="url(#b6280dbc81)"><path fill="#e98b1b" d="M 12.164062 22.5 C 12.097656 22.484375 12.035156 22.472656 11.96875 22.457031 L 11.96875 21.289062 C 12.035156 21.304688 12.097656 21.316406 12.164062 21.328125 L 12.164062 22.5 " fill-opacity="1" fill-rule="nonzero"/></g><g clip-path="url(#e19e9fb5d9)"><path fill="#e98b1b" d="M 11.828125 22.425781 C 11.761719 22.410156 11.695312 22.394531 11.632812 22.375 L 11.632812 21.210938 C 11.695312 21.226562 11.761719 21.242188 11.828125 21.257812 L 11.828125 22.425781 " fill-opacity="1" fill-rule="nonzero"/><path fill="#e98b1b" d="M 11.492188 22.339844 C 11.425781 22.320312 11.359375 22.300781 11.296875 22.28125 L 11.296875 21.117188 C 11.359375 21.136719 11.425781 21.15625 11.492188 21.175781 L 11.492188 22.339844 " fill-opacity="1" fill-rule="nonzero"/></g><g clip-path="url(#2ee2f831ab)"><path fill="#e98b1b" d="M 14.515625 22.765625 C 14.449219 22.761719 14.386719 22.757812 14.320312 22.757812 L 14.320312 21.582031 C 14.386719 21.585938 14.449219 21.589844 14.515625 21.589844 L 14.515625 22.765625 " fill-opacity="1" fill-rule="nonzero"/></g><g clip-path="url(#8d1f9e5678)"><path fill="#e98b1b" d="M 14.179688 22.75 C 14.113281 22.746094 14.050781 22.742188 13.984375 22.738281 L 13.984375 21.566406 C 14.050781 21.570312 14.113281 21.574219 14.179688 21.578125 L 14.179688 22.75 " fill-opacity="1" fill-rule="nonzero"/></g><g clip-path="url(#ad7f625fdf)"><path fill="#e98b1b" d="M 14.851562 22.773438 C 14.785156 22.773438 14.71875 22.769531 14.65625 22.769531 L 14.65625 21.59375 C 14.71875 21.597656 14.785156 21.597656 14.851562 21.601562 L 14.851562 22.773438 " fill-opacity="1" fill-rule="nonzero"/></g><g clip-path="url(#7c9fe354ac)"><path fill="#e98b1b" d="M 15.09375 22.773438 C 15.058594 22.773438 15.023438 22.773438 14.992188 22.773438 L 14.992188 21.601562 C 15.023438 21.601562 15.058594 21.601562 15.09375 21.601562 C 15.125 21.601562 15.15625 21.601562 15.1875 21.601562 L 15.1875 22.773438 C 15.15625 22.773438 15.125 22.773438 15.09375 22.773438 " fill-opacity="1" fill-rule="nonzero"/></g><g clip-path="url(#63ab33c730)"><path fill="#e98b1b" d="M 15.328125 22.773438 L 15.328125 21.601562 C 15.394531 21.597656 15.457031 21.597656 15.523438 21.597656 L 15.523438 22.769531 C 15.457031 22.769531 15.394531 22.773438 15.328125 22.773438 " fill-opacity="1" fill-rule="nonzero"/><path fill="#e98b1b" d="M 15.664062 22.765625 L 15.664062 21.59375 C 15.730469 21.589844 15.792969 21.585938 15.859375 21.582031 L 15.859375 22.757812 C 15.792969 22.761719 15.730469 22.761719 15.664062 22.765625 " fill-opacity="1" fill-rule="nonzero"/></g><g clip-path="url(#c07089412f)"><path fill="#e98b1b" d="M 16 22.75 L 16 21.578125 C 16.066406 21.574219 16.128906 21.570312 16.195312 21.566406 L 16.195312 22.738281 C 16.128906 22.742188 16.066406 22.746094 16 22.75 " fill-opacity="1" fill-rule="nonzero"/><path fill="#e98b1b" d="M 16.335938 22.726562 L 16.335938 21.554688 C 16.402344 21.550781 16.464844 21.546875 16.53125 21.539062 L 16.53125 22.710938 C 16.46875 22.71875 16.402344 22.722656 16.335938 22.726562 " fill-opacity="1" fill-rule="nonzero"/><path fill="#e98b1b" d="M 16.671875 22.699219 L 16.671875 21.527344 C 16.738281 21.519531 16.804688 21.515625 16.867188 21.507812 L 16.867188 22.679688 C 16.804688 22.6875 16.738281 22.691406 16.671875 22.699219 " fill-opacity="1" fill-rule="nonzero"/></g><g clip-path="url(#39567e2850)"><path fill="#e98b1b" d="M 17.007812 22.660156 L 17.007812 21.492188 C 17.074219 21.480469 17.140625 21.472656 17.203125 21.464844 L 17.203125 22.636719 C 17.140625 22.644531 17.074219 22.652344 17.007812 22.660156 " fill-opacity="1" fill-rule="nonzero"/></g><g clip-path="url(#bd54783e5c)"><path fill="#e98b1b" d="M 13.84375 22.726562 C 13.777344 22.722656 13.714844 22.71875 13.648438 22.710938 L 13.648438 21.539062 C 13.714844 21.542969 13.777344 21.550781 13.84375 21.554688 L 13.84375 22.726562 " fill-opacity="1" fill-rule="nonzero"/><path fill="#e98b1b" d="M 13.507812 22.699219 C 13.441406 22.691406 13.378906 22.683594 13.3125 22.675781 L 13.3125 21.503906 C 13.378906 21.511719 13.441406 21.519531 13.507812 21.527344 L 13.507812 22.699219 " fill-opacity="1" fill-rule="nonzero"/></g><g clip-path="url(#fa018947ff)"><path fill="#e98b1b" d="M 13.171875 22.660156 C 13.105469 22.652344 13.042969 22.644531 12.976562 22.636719 L 12.976562 21.464844 C 13.042969 21.472656 13.105469 21.480469 13.171875 21.488281 L 13.171875 22.660156 " fill-opacity="1" fill-rule="nonzero"/></g><g clip-path="url(#0caeced360)"><path fill="#e98b1b" d="M 11.15625 22.238281 C 11.089844 22.21875 11.023438 22.195312 10.960938 22.175781 L 10.960938 21.011719 C 11.023438 21.035156 11.089844 21.054688 11.15625 21.074219 L 11.15625 22.238281 " fill-opacity="1" fill-rule="nonzero"/></g><g clip-path="url(#a4a33de977)"><path fill="#e98b1b" d="M 10.804688 22.117188 C 10.742188 22.09375 10.683594 22.070312 10.625 22.046875 L 10.625 20.886719 C 10.6875 20.914062 10.753906 20.9375 10.824219 20.964844 L 10.824219 22.097656 C 10.824219 22.105469 10.8125 22.109375 10.804688 22.117188 " fill-opacity="1" fill-rule="nonzero"/></g><path fill="#e98b1b" d="M 10.4375 21.960938 C 10.386719 21.941406 10.335938 21.917969 10.289062 21.890625 L 10.289062 20.742188 C 10.351562 20.769531 10.417969 20.800781 10.488281 20.832031 L 10.488281 21.933594 C 10.488281 21.945312 10.464844 21.957031 10.4375 21.960938 " fill-opacity="1" fill-rule="nonzero"/><path fill="#e98b1b" d="M 10.109375 21.796875 C 10.054688 21.765625 10.003906 21.734375 9.953125 21.703125 L 9.953125 20.558594 C 10.015625 20.597656 10.082031 20.636719 10.152344 20.671875 L 10.152344 21.769531 C 10.152344 21.78125 10.132812 21.789062 10.109375 21.796875 " fill-opacity="1" fill-rule="nonzero"/><path fill="#e98b1b" d="M 9.8125 21.609375 C 9.742188 21.554688 9.675781 21.503906 9.617188 21.449219 L 9.617188 20.324219 C 9.675781 20.375 9.742188 20.421875 9.816406 20.472656 L 9.816406 21.605469 L 9.8125 21.609375 " fill-opacity="1" fill-rule="nonzero"/><path fill="#e98b1b" d="M 9.480469 21.308594 C 9.390625 21.203125 9.324219 21.097656 9.28125 20.988281 L 9.28125 19.953125 C 9.332031 20.039062 9.398438 20.121094 9.480469 20.199219 L 9.480469 21.308594 " fill-opacity="1" fill-rule="nonzero"/><g clip-path="url(#c69c210f91)"><path fill="#f89e19" d="M 21.28125 19.015625 L 21.28125 17.761719 L 9.375 17.761719 L 9.375 19.015625 C 9.375 20.175781 12.039062 21.117188 15.328125 21.117188 C 18.617188 21.117188 21.28125 20.175781 21.28125 19.015625 " fill-opacity="1" fill-rule="nonzero"/></g><g clip-path="url(#b4587b5a85)"><path fill="#f5c116" d="M 15.328125 19.773438 C 12.039062 19.773438 9.375 18.832031 9.375 17.671875 C 9.375 16.511719 12.039062 15.570312 15.328125 15.570312 C 18.617188 15.570312 21.28125 16.511719 21.28125 17.671875 C 21.28125 18.832031 18.617188 19.773438 15.328125 19.773438 " fill-opacity="1" fill-rule="nonzero"/></g><path fill="#f89e19" d="M 15.6875 18.492188 C 15.925781 18.476562 16.117188 18.4375 16.269531 18.375 C 16.417969 18.3125 16.492188 18.238281 16.492188 18.15625 C 16.492188 18.078125 16.429688 18.015625 16.304688 17.960938 C 16.179688 17.90625 15.972656 17.863281 15.6875 17.832031 L 15.6875 18.492188 M 14.992188 16.695312 C 14.804688 16.71875 14.65625 16.757812 14.542969 16.8125 C 14.433594 16.867188 14.375 16.925781 14.375 16.992188 C 14.375 17.050781 14.425781 17.105469 14.53125 17.15625 C 14.632812 17.207031 14.785156 17.25 14.992188 17.28125 L 14.992188 16.695312 M 14.992188 18.46875 L 14.992188 17.761719 C 14.367188 17.699219 13.910156 17.601562 13.617188 17.476562 C 13.328125 17.347656 13.183594 17.191406 13.183594 17.011719 C 13.183594 16.828125 13.347656 16.671875 13.675781 16.546875 C 14.003906 16.421875 14.445312 16.347656 14.992188 16.328125 L 14.992188 16.164062 L 15.6875 16.164062 L 15.6875 16.328125 C 16.191406 16.351562 16.59375 16.410156 16.894531 16.511719 C 17.195312 16.613281 17.386719 16.746094 17.46875 16.917969 L 16.257812 16.972656 C 16.1875 16.839844 15.996094 16.75 15.6875 16.703125 L 15.6875 17.363281 C 16.449219 17.433594 16.972656 17.53125 17.246094 17.644531 C 17.523438 17.761719 17.664062 17.910156 17.664062 18.09375 C 17.664062 18.296875 17.488281 18.46875 17.140625 18.609375 C 16.792969 18.746094 16.308594 18.832031 15.6875 18.863281 L 15.6875 19.179688 L 14.992188 19.179688 L 14.992188 18.871094 C 14.441406 18.847656 13.992188 18.777344 13.648438 18.65625 C 13.304688 18.535156 13.085938 18.363281 12.992188 18.140625 L 14.238281 18.09375 C 14.289062 18.183594 14.382812 18.261719 14.523438 18.328125 C 14.664062 18.390625 14.820312 18.4375 14.992188 18.46875 " fill-opacity="1" fill-rule="nonzero"/><path fill="#e98b1b" d="M 20.609375 19.859375 L 20.605469 19.855469 L 20.605469 18.722656 C 20.675781 18.671875 20.742188 18.625 20.804688 18.574219 L 20.804688 19.699219 C 20.746094 19.753906 20.679688 19.804688 20.609375 19.859375 " fill-opacity="1" fill-rule="nonzero"/><path fill="#e98b1b" d="M 20.3125 20.046875 C 20.289062 20.039062 20.269531 20.03125 20.269531 20.019531 L 20.269531 18.921875 C 20.339844 18.886719 20.40625 18.847656 20.46875 18.808594 L 20.46875 19.953125 C 20.417969 19.984375 20.367188 20.015625 20.3125 20.046875 " fill-opacity="1" fill-rule="nonzero"/><g clip-path="url(#13f1ea99bf)"><path fill="#e98b1b" d="M 20.941406 19.558594 L 20.941406 18.449219 C 21.023438 18.371094 21.089844 18.289062 21.140625 18.203125 L 21.140625 19.238281 C 21.097656 19.347656 21.03125 19.457031 20.941406 19.558594 " fill-opacity="1" fill-rule="nonzero"/></g><path fill="#e98b1b" d="M 19.984375 20.214844 C 19.957031 20.207031 19.933594 20.195312 19.933594 20.183594 L 19.933594 19.082031 C 20.003906 19.050781 20.070312 19.023438 20.132812 18.992188 L 20.132812 20.144531 C 20.085938 20.167969 20.035156 20.191406 19.984375 20.214844 " fill-opacity="1" fill-rule="nonzero"/><path fill="#e98b1b" d="M 19.617188 20.367188 C 19.605469 20.359375 19.597656 20.355469 19.597656 20.347656 L 19.597656 19.214844 C 19.667969 19.1875 19.734375 19.164062 19.796875 19.136719 L 19.796875 20.296875 C 19.738281 20.320312 19.679688 20.34375 19.617188 20.367188 " fill-opacity="1" fill-rule="nonzero"/><path fill="#e98b1b" d="M 19.261719 20.492188 L 19.261719 19.328125 C 19.332031 19.304688 19.398438 19.285156 19.460938 19.261719 L 19.460938 20.425781 C 19.398438 20.445312 19.332031 20.46875 19.261719 20.492188 " fill-opacity="1" fill-rule="nonzero"/><path fill="#e98b1b" d="M 18.925781 20.589844 L 18.925781 19.425781 C 18.992188 19.40625 19.058594 19.386719 19.125 19.367188 L 19.125 20.53125 C 19.058594 20.550781 18.996094 20.570312 18.925781 20.589844 " fill-opacity="1" fill-rule="nonzero"/><path fill="#e98b1b" d="M 18.589844 20.675781 L 18.589844 19.507812 C 18.660156 19.492188 18.722656 19.476562 18.789062 19.460938 L 18.789062 20.625 C 18.722656 20.644531 18.660156 20.660156 18.589844 20.675781 " fill-opacity="1" fill-rule="nonzero"/><path fill="#e98b1b" d="M 18.253906 20.75 L 18.253906 19.582031 C 18.320312 19.566406 18.386719 19.554688 18.453125 19.539062 L 18.453125 20.707031 C 18.386719 20.722656 18.320312 20.734375 18.253906 20.75 " fill-opacity="1" fill-rule="nonzero"/><path fill="#e98b1b" d="M 17.921875 20.8125 L 17.921875 19.644531 C 17.984375 19.632812 18.050781 19.621094 18.117188 19.605469 L 18.117188 20.777344 C 18.050781 20.789062 17.984375 20.800781 17.921875 20.8125 " fill-opacity="1" fill-rule="nonzero"/><path fill="#e98b1b" d="M 17.582031 20.867188 L 17.582031 19.695312 C 17.648438 19.6875 17.714844 19.675781 17.78125 19.664062 L 17.78125 20.835938 C 17.714844 20.847656 17.648438 20.855469 17.582031 20.867188 " fill-opacity="1" fill-rule="nonzero"/><path fill="#e98b1b" d="M 13.070312 20.867188 C 13.003906 20.855469 12.9375 20.847656 12.875 20.835938 L 12.875 19.664062 C 12.9375 19.675781 13.003906 19.6875 13.070312 19.695312 L 13.070312 20.867188 " fill-opacity="1" fill-rule="nonzero"/><path fill="#e98b1b" d="M 12.734375 20.8125 C 12.667969 20.800781 12.601562 20.789062 12.539062 20.777344 L 12.539062 19.605469 C 12.601562 19.621094 12.667969 19.632812 12.734375 19.644531 L 12.734375 20.8125 " fill-opacity="1" fill-rule="nonzero"/><path fill="#e98b1b" d="M 12.398438 20.75 C 12.332031 20.734375 12.265625 20.722656 12.203125 20.707031 L 12.203125 19.539062 C 12.265625 19.554688 12.332031 19.566406 12.398438 19.582031 L 12.398438 20.75 " fill-opacity="1" fill-rule="nonzero"/><path fill="#e98b1b" d="M 12.0625 20.675781 C 11.996094 20.660156 11.929688 20.644531 11.867188 20.625 L 11.867188 19.460938 C 11.929688 19.476562 11.996094 19.492188 12.0625 19.507812 L 12.0625 20.675781 " fill-opacity="1" fill-rule="nonzero"/><path fill="#e98b1b" d="M 11.726562 20.589844 C 11.660156 20.570312 11.59375 20.550781 11.53125 20.53125 L 11.53125 19.367188 C 11.59375 19.386719 11.660156 19.40625 11.726562 19.425781 L 11.726562 20.589844 " fill-opacity="1" fill-rule="nonzero"/><path fill="#e98b1b" d="M 14.75 21.015625 C 14.683594 21.011719 14.617188 21.011719 14.550781 21.007812 L 14.550781 19.832031 C 14.617188 19.835938 14.683594 19.839844 14.75 19.84375 L 14.75 21.015625 " fill-opacity="1" fill-rule="nonzero"/><path fill="#e98b1b" d="M 14.414062 21 C 14.347656 20.996094 14.28125 20.992188 14.214844 20.988281 L 14.214844 19.816406 C 14.28125 19.820312 14.347656 19.824219 14.414062 19.828125 L 14.414062 21 " fill-opacity="1" fill-rule="nonzero"/><path fill="#e98b1b" d="M 15.085938 21.023438 C 15.019531 21.023438 14.953125 21.019531 14.886719 21.019531 L 14.886719 19.847656 C 14.953125 19.847656 15.019531 19.847656 15.085938 19.851562 L 15.085938 21.023438 " fill-opacity="1" fill-rule="nonzero"/><path fill="#e98b1b" d="M 15.328125 21.027344 C 15.292969 21.027344 15.257812 21.023438 15.222656 21.023438 L 15.222656 19.851562 C 15.257812 19.851562 15.292969 19.851562 15.328125 19.851562 C 15.359375 19.851562 15.390625 19.851562 15.421875 19.851562 L 15.421875 21.023438 C 15.390625 21.023438 15.359375 21.027344 15.328125 21.027344 " fill-opacity="1" fill-rule="nonzero"/><path fill="#e98b1b" d="M 15.558594 21.023438 L 15.558594 19.851562 C 15.625 19.847656 15.691406 19.847656 15.757812 19.847656 L 15.757812 21.019531 C 15.691406 21.019531 15.625 21.023438 15.558594 21.023438 " fill-opacity="1" fill-rule="nonzero"/><path fill="#e98b1b" d="M 15.894531 21.015625 L 15.894531 19.84375 C 15.960938 19.839844 16.027344 19.835938 16.09375 19.835938 L 16.09375 21.007812 C 16.027344 21.011719 15.960938 21.011719 15.894531 21.015625 " fill-opacity="1" fill-rule="nonzero"/><path fill="#e98b1b" d="M 16.230469 21 L 16.230469 19.828125 C 16.296875 19.824219 16.363281 19.820312 16.429688 19.816406 L 16.429688 20.988281 C 16.363281 20.992188 16.296875 20.996094 16.230469 21 " fill-opacity="1" fill-rule="nonzero"/><path fill="#e98b1b" d="M 16.566406 20.976562 L 16.566406 19.804688 C 16.632812 19.800781 16.699219 19.796875 16.765625 19.789062 L 16.765625 20.960938 C 16.699219 20.96875 16.632812 20.972656 16.566406 20.976562 " fill-opacity="1" fill-rule="nonzero"/><path fill="#e98b1b" d="M 16.902344 20.949219 L 16.902344 19.777344 C 16.96875 19.769531 17.035156 19.765625 17.101562 19.757812 L 17.101562 20.929688 C 17.035156 20.9375 16.96875 20.941406 16.902344 20.949219 " fill-opacity="1" fill-rule="nonzero"/><path fill="#e98b1b" d="M 17.238281 20.914062 L 17.238281 19.742188 C 17.304688 19.734375 17.371094 19.726562 17.4375 19.714844 L 17.4375 20.886719 C 17.371094 20.894531 17.304688 20.902344 17.238281 20.914062 " fill-opacity="1" fill-rule="nonzero"/><path fill="#e98b1b" d="M 14.078125 20.976562 C 14.011719 20.972656 13.945312 20.96875 13.878906 20.960938 L 13.878906 19.789062 C 13.945312 19.796875 14.011719 19.800781 14.078125 19.804688 L 14.078125 20.976562 " fill-opacity="1" fill-rule="nonzero"/><path fill="#e98b1b" d="M 13.742188 20.949219 C 13.675781 20.941406 13.609375 20.933594 13.542969 20.929688 L 13.542969 19.757812 C 13.609375 19.761719 13.675781 19.769531 13.742188 19.777344 L 13.742188 20.949219 " fill-opacity="1" fill-rule="nonzero"/><path fill="#e98b1b" d="M 13.40625 20.910156 C 13.339844 20.902344 13.273438 20.894531 13.210938 20.886719 L 13.210938 19.714844 C 13.273438 19.722656 13.339844 19.730469 13.40625 19.738281 L 13.40625 20.910156 " fill-opacity="1" fill-rule="nonzero"/><path fill="#e98b1b" d="M 11.390625 20.492188 C 11.324219 20.46875 11.257812 20.445312 11.195312 20.425781 L 11.195312 19.261719 C 11.257812 19.285156 11.324219 19.304688 11.390625 19.328125 L 11.390625 20.492188 " fill-opacity="1" fill-rule="nonzero"/><path fill="#e98b1b" d="M 11.035156 20.367188 C 10.976562 20.34375 10.914062 20.320312 10.859375 20.296875 L 10.859375 19.136719 C 10.921875 19.164062 10.988281 19.1875 11.054688 19.214844 L 11.054688 20.347656 C 11.054688 20.355469 11.046875 20.359375 11.035156 20.367188 " fill-opacity="1" fill-rule="nonzero"/><path fill="#e98b1b" d="M 10.667969 20.214844 C 10.617188 20.191406 10.570312 20.167969 10.523438 20.144531 L 10.523438 18.992188 C 10.585938 19.023438 10.652344 19.050781 10.71875 19.082031 L 10.71875 20.183594 C 10.71875 20.195312 10.699219 20.207031 10.667969 20.214844 " fill-opacity="1" fill-rule="nonzero"/><path fill="#e98b1b" d="M 10.34375 20.046875 C 10.289062 20.015625 10.234375 19.984375 10.1875 19.953125 L 10.1875 18.808594 C 10.25 18.847656 10.3125 18.886719 10.382812 18.921875 L 10.382812 20.019531 C 10.382812 20.03125 10.367188 20.039062 10.34375 20.046875 " fill-opacity="1" fill-rule="nonzero"/><path fill="#e98b1b" d="M 10.046875 19.859375 C 9.972656 19.804688 9.910156 19.753906 9.851562 19.699219 L 9.851562 18.574219 C 9.910156 18.625 9.976562 18.671875 10.046875 18.722656 L 10.046875 19.859375 " fill-opacity="1" fill-rule="nonzero"/><path fill="#e98b1b" d="M 9.710938 19.558594 C 9.621094 19.457031 9.558594 19.347656 9.515625 19.238281 L 9.515625 18.269531 C 9.542969 18.285156 9.570312 18.304688 9.597656 18.320312 C 9.632812 18.363281 9.667969 18.40625 9.710938 18.449219 L 9.710938 19.558594 " fill-opacity="1" fill-rule="nonzero"/><g clip-path="url(#40bd96a69f)"><path fill="#f89e19" d="M 20.703125 17.265625 L 20.703125 16.015625 L 8.796875 16.015625 L 8.796875 17.265625 C 8.796875 18.429688 11.460938 19.367188 14.75 19.367188 C 18.039062 19.367188 20.703125 18.429688 20.703125 17.265625 " fill-opacity="1" fill-rule="nonzero"/></g><g clip-path="url(#5ba1e85a11)"><path fill="#f5c116" d="M 14.75 18.023438 C 11.460938 18.023438 8.796875 17.082031 8.796875 15.921875 C 8.796875 14.761719 11.460938 13.820312 14.75 13.820312 C 18.039062 13.820312 20.703125 14.761719 20.703125 15.921875 C 20.703125 17.082031 18.039062 18.023438 14.75 18.023438 " fill-opacity="1" fill-rule="nonzero"/></g><path fill="#f89e19" d="M 15.109375 16.742188 C 15.347656 16.726562 15.542969 16.6875 15.691406 16.625 C 15.839844 16.5625 15.914062 16.488281 15.914062 16.40625 C 15.914062 16.328125 15.851562 16.265625 15.726562 16.210938 C 15.601562 16.15625 15.394531 16.113281 15.109375 16.085938 L 15.109375 16.742188 M 14.414062 14.949219 C 14.226562 14.96875 14.078125 15.007812 13.964844 15.0625 C 13.855469 15.117188 13.800781 15.175781 13.800781 15.242188 C 13.800781 15.300781 13.851562 15.355469 13.953125 15.40625 C 14.054688 15.457031 14.207031 15.5 14.414062 15.53125 L 14.414062 14.949219 M 14.414062 16.71875 L 14.414062 16.011719 C 13.792969 15.949219 13.332031 15.855469 13.042969 15.726562 C 12.75 15.597656 12.605469 15.445312 12.605469 15.261719 C 12.605469 15.078125 12.769531 14.921875 13.097656 14.796875 C 13.429688 14.671875 13.867188 14.597656 14.414062 14.578125 L 14.414062 14.414062 L 15.109375 14.414062 L 15.109375 14.578125 C 15.613281 14.601562 16.015625 14.660156 16.316406 14.761719 C 16.617188 14.863281 16.808594 14.996094 16.890625 15.167969 L 15.679688 15.222656 C 15.609375 15.089844 15.417969 15 15.109375 14.953125 L 15.109375 15.613281 C 15.871094 15.683594 16.394531 15.78125 16.671875 15.894531 C 16.949219 16.011719 17.085938 16.160156 17.085938 16.34375 C 17.085938 16.546875 16.910156 16.71875 16.5625 16.859375 C 16.214844 16.996094 15.730469 17.082031 15.109375 17.113281 L 15.109375 17.429688 L 14.414062 17.429688 L 14.414062 17.125 C 13.863281 17.097656 13.417969 17.027344 13.074219 16.90625 C 12.730469 16.785156 12.507812 16.613281 12.414062 16.390625 L 13.660156 16.34375 C 13.710938 16.433594 13.808594 16.511719 13.945312 16.578125 C 14.085938 16.640625 14.242188 16.6875 14.414062 16.71875 " fill-opacity="1" fill-rule="nonzero"/><path fill="#e98b1b" d="M 20.03125 18.109375 L 20.03125 16.972656 C 20.101562 16.925781 20.167969 16.875 20.226562 16.824219 L 20.226562 17.949219 C 20.167969 18.003906 20.101562 18.058594 20.03125 18.109375 " fill-opacity="1" fill-rule="nonzero"/><path fill="#e98b1b" d="M 19.734375 18.296875 C 19.710938 18.292969 19.691406 18.28125 19.691406 18.269531 L 19.691406 17.171875 C 19.761719 17.136719 19.828125 17.097656 19.890625 17.058594 L 19.890625 18.203125 C 19.839844 18.234375 19.789062 18.265625 19.734375 18.296875 " fill-opacity="1" fill-rule="nonzero"/><path fill="#e98b1b" d="M 20.367188 17.808594 L 20.367188 16.699219 C 20.445312 16.621094 20.511719 16.539062 20.5625 16.453125 L 20.5625 17.492188 C 20.519531 17.597656 20.453125 17.707031 20.367188 17.808594 " fill-opacity="1" fill-rule="nonzero"/><path fill="#e98b1b" d="M 19.40625 18.464844 C 19.378906 18.457031 19.359375 18.445312 19.359375 18.433594 L 19.359375 17.332031 C 19.425781 17.300781 19.492188 17.273438 19.554688 17.242188 L 19.554688 18.394531 C 19.507812 18.417969 19.457031 18.441406 19.40625 18.464844 " fill-opacity="1" fill-rule="nonzero"/><path fill="#e98b1b" d="M 19.039062 18.617188 C 19.03125 18.613281 19.023438 18.605469 19.023438 18.597656 L 19.023438 17.464844 C 19.089844 17.4375 19.15625 17.414062 19.21875 17.390625 L 19.21875 18.546875 C 19.160156 18.570312 19.101562 18.59375 19.039062 18.617188 " fill-opacity="1" fill-rule="nonzero"/><path fill="#e98b1b" d="M 18.6875 18.742188 L 18.6875 17.578125 C 18.753906 17.554688 18.820312 17.535156 18.882812 17.511719 L 18.882812 18.675781 C 18.820312 18.699219 18.753906 18.71875 18.6875 18.742188 " fill-opacity="1" fill-rule="nonzero"/><path fill="#e98b1b" d="M 18.351562 18.839844 L 18.351562 17.675781 C 18.417969 17.65625 18.484375 17.636719 18.546875 17.621094 L 18.546875 18.78125 C 18.484375 18.800781 18.417969 18.820312 18.351562 18.839844 " fill-opacity="1" fill-rule="nonzero"/><path fill="#e98b1b" d="M 18.015625 18.925781 L 18.015625 17.757812 C 18.082031 17.742188 18.148438 17.726562 18.210938 17.710938 L 18.210938 18.875 C 18.148438 18.894531 18.082031 18.910156 18.015625 18.925781 " fill-opacity="1" fill-rule="nonzero"/><path fill="#e98b1b" d="M 17.679688 19 L 17.679688 17.832031 C 17.746094 17.816406 17.8125 17.804688 17.875 17.789062 L 17.875 18.957031 C 17.8125 18.972656 17.746094 18.984375 17.679688 19 " fill-opacity="1" fill-rule="nonzero"/><path fill="#e98b1b" d="M 17.34375 19.0625 L 17.34375 17.894531 C 17.410156 17.882812 17.472656 17.871094 17.539062 17.859375 L 17.539062 19.027344 C 17.476562 19.039062 17.410156 19.050781 17.34375 19.0625 " fill-opacity="1" fill-rule="nonzero"/><path fill="#e98b1b" d="M 17.007812 19.117188 L 17.007812 17.945312 C 17.074219 17.9375 17.140625 17.925781 17.203125 17.914062 L 17.203125 19.085938 C 17.140625 19.097656 17.074219 19.105469 17.007812 19.117188 " fill-opacity="1" fill-rule="nonzero"/><path fill="#e98b1b" d="M 12.492188 19.117188 C 12.425781 19.105469 12.359375 19.097656 12.296875 19.085938 L 12.296875 17.914062 C 12.359375 17.925781 12.425781 17.9375 12.492188 17.945312 L 12.492188 19.117188 " fill-opacity="1" fill-rule="nonzero"/><path fill="#e98b1b" d="M 12.15625 19.0625 C 12.089844 19.050781 12.023438 19.039062 11.960938 19.027344 L 11.960938 17.859375 C 12.023438 17.871094 12.089844 17.882812 12.15625 17.894531 L 12.15625 19.0625 " fill-opacity="1" fill-rule="nonzero"/><path fill="#e98b1b" d="M 11.820312 19 C 11.753906 18.984375 11.6875 18.972656 11.625 18.957031 L 11.625 17.789062 C 11.6875 17.804688 11.753906 17.816406 11.820312 17.832031 L 11.820312 19 " fill-opacity="1" fill-rule="nonzero"/><path fill="#e98b1b" d="M 11.484375 18.925781 C 11.417969 18.910156 11.351562 18.894531 11.289062 18.875 L 11.289062 17.710938 C 11.351562 17.726562 11.417969 17.742188 11.484375 17.757812 L 11.484375 18.925781 " fill-opacity="1" fill-rule="nonzero"/><path fill="#e98b1b" d="M 11.148438 18.839844 C 11.082031 18.820312 11.015625 18.800781 10.953125 18.78125 L 10.953125 17.621094 C 11.015625 17.636719 11.082031 17.65625 11.148438 17.675781 L 11.148438 18.839844 " fill-opacity="1" fill-rule="nonzero"/><path fill="#e98b1b" d="M 14.171875 19.265625 C 14.105469 19.261719 14.039062 19.261719 13.976562 19.257812 L 13.976562 18.085938 C 14.039062 18.085938 14.105469 18.089844 14.171875 18.09375 L 14.171875 19.265625 " fill-opacity="1" fill-rule="nonzero"/><path fill="#e98b1b" d="M 13.835938 19.25 C 13.769531 19.246094 13.703125 19.242188 13.640625 19.238281 L 13.640625 18.066406 C 13.703125 18.070312 13.769531 18.074219 13.835938 18.078125 L 13.835938 19.25 " fill-opacity="1" fill-rule="nonzero"/><path fill="#e98b1b" d="M 14.507812 19.273438 C 14.441406 19.273438 14.375 19.269531 14.3125 19.269531 L 14.3125 18.097656 C 14.375 18.097656 14.441406 18.097656 14.507812 18.101562 L 14.507812 19.273438 " fill-opacity="1" fill-rule="nonzero"/><path fill="#e98b1b" d="M 14.75 19.277344 C 14.714844 19.277344 14.679688 19.273438 14.648438 19.273438 L 14.648438 18.101562 C 14.679688 18.101562 14.714844 18.101562 14.75 18.101562 C 14.78125 18.101562 14.8125 18.101562 14.84375 18.101562 L 14.84375 19.273438 C 14.8125 19.273438 14.78125 19.277344 14.75 19.277344 " fill-opacity="1" fill-rule="nonzero"/><path fill="#e98b1b" d="M 14.984375 19.273438 L 14.984375 18.101562 C 15.050781 18.101562 15.113281 18.097656 15.179688 18.097656 L 15.179688 19.269531 C 15.113281 19.273438 15.050781 19.273438 14.984375 19.273438 " fill-opacity="1" fill-rule="nonzero"/><path fill="#e98b1b" d="M 15.320312 19.265625 L 15.320312 18.09375 C 15.382812 18.089844 15.449219 18.085938 15.515625 18.085938 L 15.515625 19.257812 C 15.449219 19.261719 15.382812 19.265625 15.320312 19.265625 " fill-opacity="1" fill-rule="nonzero"/><path fill="#e98b1b" d="M 15.65625 19.25 L 15.65625 18.078125 C 15.722656 18.074219 15.785156 18.070312 15.851562 18.066406 L 15.851562 19.238281 C 15.785156 19.242188 15.722656 19.246094 15.65625 19.25 " fill-opacity="1" fill-rule="nonzero"/><path fill="#e98b1b" d="M 15.988281 19.230469 L 15.988281 18.054688 C 16.058594 18.050781 16.121094 18.046875 16.1875 18.039062 L 16.1875 19.214844 C 16.121094 19.21875 16.058594 19.222656 15.988281 19.230469 " fill-opacity="1" fill-rule="nonzero"/><path fill="#e98b1b" d="M 16.324219 19.199219 L 16.324219 18.027344 C 16.390625 18.019531 16.457031 18.015625 16.523438 18.007812 L 16.523438 19.179688 C 16.457031 19.1875 16.390625 19.191406 16.324219 19.199219 " fill-opacity="1" fill-rule="nonzero"/><path fill="#e98b1b" d="M 16.660156 19.164062 L 16.660156 17.992188 C 16.726562 17.984375 16.792969 17.976562 16.859375 17.964844 L 16.859375 19.136719 C 16.792969 19.148438 16.726562 19.15625 16.660156 19.164062 " fill-opacity="1" fill-rule="nonzero"/><path fill="#e98b1b" d="M 13.5 19.226562 C 13.433594 19.222656 13.367188 19.21875 13.304688 19.210938 L 13.304688 18.039062 C 13.367188 18.046875 13.433594 18.050781 13.5 18.054688 L 13.5 19.226562 " fill-opacity="1" fill-rule="nonzero"/><path fill="#e98b1b" d="M 13.164062 19.199219 C 13.097656 19.191406 13.03125 19.1875 12.96875 19.179688 L 12.96875 18.007812 C 13.03125 18.015625 13.097656 18.019531 13.164062 18.027344 L 13.164062 19.199219 " fill-opacity="1" fill-rule="nonzero"/><path fill="#e98b1b" d="M 12.828125 19.160156 C 12.761719 19.152344 12.695312 19.144531 12.632812 19.136719 L 12.632812 17.964844 C 12.695312 17.972656 12.761719 17.980469 12.828125 17.992188 L 12.828125 19.160156 " fill-opacity="1" fill-rule="nonzero"/><path fill="#e98b1b" d="M 10.8125 18.742188 C 10.746094 18.71875 10.679688 18.699219 10.617188 18.675781 L 10.617188 17.511719 C 10.679688 17.535156 10.746094 17.554688 10.8125 17.578125 L 10.8125 18.742188 " fill-opacity="1" fill-rule="nonzero"/><path fill="#e98b1b" d="M 10.460938 18.617188 C 10.398438 18.59375 10.339844 18.570312 10.28125 18.546875 L 10.28125 17.390625 C 10.34375 17.414062 10.410156 17.4375 10.476562 17.464844 L 10.476562 18.597656 C 10.476562 18.605469 10.46875 18.613281 10.460938 18.617188 " fill-opacity="1" fill-rule="nonzero"/><path fill="#e98b1b" d="M 10.089844 18.464844 C 10.039062 18.441406 9.992188 18.417969 9.945312 18.394531 L 9.945312 17.242188 C 10.007812 17.273438 10.074219 17.300781 10.140625 17.332031 L 10.140625 18.433594 C 10.140625 18.445312 10.121094 18.457031 10.089844 18.464844 " fill-opacity="1" fill-rule="nonzero"/><path fill="#e98b1b" d="M 9.765625 18.296875 C 9.710938 18.265625 9.660156 18.234375 9.609375 18.203125 L 9.609375 17.058594 C 9.671875 17.097656 9.738281 17.136719 9.804688 17.171875 L 9.804688 18.269531 C 9.804688 18.28125 9.789062 18.292969 9.765625 18.296875 " fill-opacity="1" fill-rule="nonzero"/><path fill="#e98b1b" d="M 9.46875 18.109375 C 9.398438 18.058594 9.332031 18.003906 9.273438 17.949219 L 9.273438 16.824219 C 9.332031 16.875 9.398438 16.925781 9.46875 16.972656 L 9.46875 18.109375 " fill-opacity="1" fill-rule="nonzero"/><g clip-path="url(#0501ee3953)"><path fill="#e98b1b" d="M 9.132812 17.808594 C 9.046875 17.707031 8.980469 17.597656 8.9375 17.492188 L 8.9375 16.453125 C 8.988281 16.539062 9.054688 16.621094 9.132812 16.699219 L 9.132812 17.808594 " fill-opacity="1" fill-rule="nonzero"/></g><g clip-path="url(#13a7856520)"><path fill="#f89e19" d="M 21.515625 15.085938 L 21.515625 13.832031 L 9.605469 13.832031 L 9.605469 15.085938 C 9.605469 16.246094 12.273438 17.1875 15.558594 17.1875 C 18.847656 17.1875 21.515625 16.246094 21.515625 15.085938 " fill-opacity="1" fill-rule="nonzero"/></g><g clip-path="url(#2476cfbe69)"><path fill="#f5c116" d="M 15.558594 15.839844 C 12.273438 15.839844 9.605469 14.902344 9.605469 13.738281 C 9.605469 12.578125 12.273438 11.636719 15.558594 11.636719 C 18.847656 11.636719 21.515625 12.578125 21.515625 13.738281 C 21.515625 14.902344 18.847656 15.839844 15.558594 15.839844 " fill-opacity="1" fill-rule="nonzero"/></g><path fill="#f89e19" d="M 15.917969 14.5625 C 16.15625 14.542969 16.351562 14.503906 16.5 14.441406 C 16.652344 14.378906 16.726562 14.308594 16.726562 14.222656 C 16.726562 14.148438 16.664062 14.082031 16.539062 14.027344 C 16.410156 13.972656 16.207031 13.929688 15.917969 13.902344 L 15.917969 14.5625 M 15.226562 12.765625 C 15.039062 12.789062 14.886719 12.828125 14.777344 12.878906 C 14.664062 12.933594 14.609375 12.996094 14.609375 13.058594 C 14.609375 13.117188 14.660156 13.175781 14.761719 13.226562 C 14.863281 13.277344 15.019531 13.316406 15.226562 13.347656 L 15.226562 12.765625 M 15.226562 14.535156 L 15.226562 13.828125 C 14.601562 13.765625 14.144531 13.671875 13.851562 13.542969 C 13.5625 13.417969 13.414062 13.261719 13.414062 13.078125 C 13.414062 12.894531 13.582031 12.738281 13.910156 12.613281 C 14.238281 12.488281 14.679688 12.417969 15.226562 12.398438 L 15.226562 12.230469 L 15.917969 12.230469 L 15.917969 12.398438 C 16.425781 12.417969 16.828125 12.480469 17.128906 12.582031 C 17.425781 12.679688 17.617188 12.816406 17.699219 12.984375 L 16.492188 13.039062 C 16.417969 12.90625 16.226562 12.816406 15.917969 12.769531 L 15.917969 13.429688 C 16.683594 13.503906 17.203125 13.597656 17.480469 13.714844 C 17.757812 13.832031 17.894531 13.980469 17.894531 14.164062 C 17.894531 14.367188 17.722656 14.535156 17.375 14.675781 C 17.023438 14.816406 16.539062 14.902344 15.917969 14.933594 L 15.917969 15.25 L 15.226562 15.25 L 15.226562 14.941406 C 14.675781 14.917969 14.226562 14.84375 13.882812 14.722656 C 13.539062 14.601562 13.320312 14.429688 13.222656 14.210938 L 14.472656 14.164062 C 14.523438 14.253906 14.617188 14.328125 14.757812 14.394531 C 14.898438 14.460938 15.054688 14.507812 15.226562 14.535156 " fill-opacity="1" fill-rule="nonzero"/><g clip-path="url(#e217f82e68)"><path fill="#e98b1b" d="M 20.839844 15.925781 L 20.839844 14.789062 C 20.910156 14.742188 20.976562 14.695312 21.039062 14.644531 L 21.039062 15.765625 C 20.976562 15.820312 20.914062 15.875 20.839844 15.925781 " fill-opacity="1" fill-rule="nonzero"/></g><path fill="#e98b1b" d="M 20.542969 16.117188 C 20.519531 16.109375 20.503906 16.101562 20.503906 16.089844 L 20.503906 14.992188 C 20.574219 14.953125 20.640625 14.917969 20.703125 14.878906 L 20.703125 16.023438 C 20.652344 16.054688 20.597656 16.085938 20.542969 16.117188 " fill-opacity="1" fill-rule="nonzero"/><g clip-path="url(#0f002f57a6)"><path fill="#e98b1b" d="M 21.175781 15.625 L 21.175781 14.519531 C 21.253906 14.4375 21.320312 14.355469 21.371094 14.273438 L 21.371094 15.308594 C 21.332031 15.417969 21.265625 15.523438 21.175781 15.625 " fill-opacity="1" fill-rule="nonzero"/></g><path fill="#e98b1b" d="M 20.21875 16.28125 C 20.1875 16.277344 20.167969 16.265625 20.167969 16.253906 L 20.167969 15.148438 C 20.238281 15.121094 20.300781 15.089844 20.367188 15.058594 L 20.367188 16.210938 C 20.316406 16.234375 20.269531 16.257812 20.21875 16.28125 " fill-opacity="1" fill-rule="nonzero"/><path fill="#e98b1b" d="M 19.851562 16.4375 C 19.839844 16.429688 19.832031 16.421875 19.832031 16.417969 L 19.832031 15.28125 C 19.898438 15.257812 19.964844 15.234375 20.03125 15.207031 L 20.03125 16.363281 C 19.972656 16.390625 19.910156 16.414062 19.851562 16.4375 " fill-opacity="1" fill-rule="nonzero"/><path fill="#e98b1b" d="M 19.496094 16.558594 L 19.496094 15.394531 C 19.5625 15.375 19.628906 15.351562 19.695312 15.332031 L 19.695312 16.492188 C 19.628906 16.515625 19.5625 16.539062 19.496094 16.558594 " fill-opacity="1" fill-rule="nonzero"/><path fill="#e98b1b" d="M 19.160156 16.65625 L 19.160156 15.492188 C 19.226562 15.476562 19.292969 15.457031 19.359375 15.4375 L 19.359375 16.601562 C 19.292969 16.621094 19.226562 16.640625 19.160156 16.65625 " fill-opacity="1" fill-rule="nonzero"/><path fill="#e98b1b" d="M 18.824219 16.746094 L 18.824219 15.578125 C 18.890625 15.5625 18.957031 15.546875 19.023438 15.527344 L 19.023438 16.695312 C 18.957031 16.710938 18.890625 16.730469 18.824219 16.746094 " fill-opacity="1" fill-rule="nonzero"/><path fill="#e98b1b" d="M 18.488281 16.816406 L 18.488281 15.648438 C 18.554688 15.636719 18.621094 15.621094 18.6875 15.609375 L 18.6875 16.777344 C 18.621094 16.789062 18.554688 16.804688 18.488281 16.816406 " fill-opacity="1" fill-rule="nonzero"/><path fill="#e98b1b" d="M 18.152344 16.882812 L 18.152344 15.710938 C 18.21875 15.699219 18.285156 15.6875 18.351562 15.675781 L 18.351562 16.847656 C 18.285156 16.859375 18.21875 16.871094 18.152344 16.882812 " fill-opacity="1" fill-rule="nonzero"/><path fill="#e98b1b" d="M 17.816406 16.933594 L 17.816406 15.765625 C 17.882812 15.753906 17.949219 15.746094 18.015625 15.734375 L 18.015625 16.90625 C 17.949219 16.914062 17.882812 16.925781 17.816406 16.933594 " fill-opacity="1" fill-rule="nonzero"/><path fill="#e98b1b" d="M 13.304688 16.933594 C 13.238281 16.925781 13.171875 16.914062 13.105469 16.90625 L 13.105469 15.734375 C 13.171875 15.746094 13.238281 15.753906 13.304688 15.765625 L 13.304688 16.933594 " fill-opacity="1" fill-rule="nonzero"/><path fill="#e98b1b" d="M 12.96875 16.882812 C 12.902344 16.871094 12.835938 16.859375 12.769531 16.847656 L 12.769531 15.675781 C 12.835938 15.6875 12.902344 15.699219 12.96875 15.710938 L 12.96875 16.882812 " fill-opacity="1" fill-rule="nonzero"/><path fill="#e98b1b" d="M 12.632812 16.816406 C 12.566406 16.804688 12.5 16.789062 12.433594 16.777344 L 12.433594 15.609375 C 12.5 15.621094 12.566406 15.636719 12.632812 15.648438 L 12.632812 16.816406 " fill-opacity="1" fill-rule="nonzero"/><path fill="#e98b1b" d="M 12.296875 16.746094 C 12.230469 16.730469 12.164062 16.710938 12.097656 16.695312 L 12.097656 15.527344 C 12.164062 15.546875 12.230469 15.5625 12.296875 15.578125 L 12.296875 16.746094 " fill-opacity="1" fill-rule="nonzero"/><path fill="#e98b1b" d="M 11.960938 16.65625 C 11.894531 16.640625 11.828125 16.621094 11.761719 16.601562 L 11.761719 15.4375 C 11.828125 15.457031 11.894531 15.476562 11.960938 15.492188 L 11.960938 16.65625 " fill-opacity="1" fill-rule="nonzero"/><path fill="#e98b1b" d="M 14.984375 17.085938 C 14.917969 17.082031 14.851562 17.078125 14.785156 17.074219 L 14.785156 15.902344 C 14.851562 15.90625 14.917969 15.910156 14.984375 15.910156 L 14.984375 17.085938 " fill-opacity="1" fill-rule="nonzero"/><path fill="#e98b1b" d="M 14.648438 17.070312 C 14.582031 17.066406 14.515625 17.0625 14.449219 17.058594 L 14.449219 15.882812 C 14.515625 15.886719 14.582031 15.894531 14.648438 15.898438 L 14.648438 17.070312 " fill-opacity="1" fill-rule="nonzero"/><path fill="#e98b1b" d="M 15.320312 17.09375 C 15.253906 17.089844 15.1875 17.089844 15.121094 17.085938 L 15.121094 15.914062 C 15.1875 15.917969 15.253906 15.917969 15.320312 15.917969 L 15.320312 17.09375 " fill-opacity="1" fill-rule="nonzero"/><path fill="#e98b1b" d="M 15.558594 17.09375 C 15.527344 17.09375 15.492188 17.09375 15.457031 17.09375 L 15.457031 15.921875 C 15.492188 15.921875 15.527344 15.921875 15.558594 15.921875 C 15.59375 15.921875 15.625 15.921875 15.65625 15.921875 L 15.65625 17.09375 C 15.625 17.09375 15.59375 17.09375 15.558594 17.09375 " fill-opacity="1" fill-rule="nonzero"/><path fill="#e98b1b" d="M 15.792969 17.09375 L 15.792969 15.917969 C 15.859375 15.917969 15.925781 15.917969 15.992188 15.914062 L 15.992188 17.089844 C 15.925781 17.089844 15.859375 17.089844 15.792969 17.09375 " fill-opacity="1" fill-rule="nonzero"/><path fill="#e98b1b" d="M 16.128906 17.085938 L 16.128906 15.910156 C 16.195312 15.910156 16.261719 15.90625 16.328125 15.902344 L 16.328125 17.074219 C 16.261719 17.078125 16.195312 17.082031 16.128906 17.085938 " fill-opacity="1" fill-rule="nonzero"/><path fill="#e98b1b" d="M 16.464844 17.070312 L 16.464844 15.898438 C 16.53125 15.894531 16.597656 15.890625 16.664062 15.882812 L 16.664062 17.058594 C 16.597656 17.0625 16.53125 17.066406 16.464844 17.070312 " fill-opacity="1" fill-rule="nonzero"/><path fill="#e98b1b" d="M 16.800781 17.046875 L 16.800781 15.875 C 16.867188 15.871094 16.933594 15.863281 17 15.859375 L 17 17.03125 C 16.933594 17.035156 16.867188 17.042969 16.800781 17.046875 " fill-opacity="1" fill-rule="nonzero"/><path fill="#e98b1b" d="M 17.136719 17.019531 L 17.136719 15.847656 C 17.203125 15.839844 17.269531 15.832031 17.335938 15.824219 L 17.335938 16.996094 C 17.269531 17.003906 17.203125 17.011719 17.136719 17.019531 " fill-opacity="1" fill-rule="nonzero"/><path fill="#e98b1b" d="M 17.472656 16.980469 L 17.472656 15.808594 C 17.539062 15.800781 17.605469 15.792969 17.667969 15.785156 L 17.667969 16.957031 C 17.605469 16.964844 17.539062 16.972656 17.472656 16.980469 " fill-opacity="1" fill-rule="nonzero"/><path fill="#e98b1b" d="M 14.3125 17.046875 C 14.246094 17.042969 14.179688 17.035156 14.113281 17.03125 L 14.113281 15.859375 C 14.179688 15.863281 14.246094 15.871094 14.3125 15.875 L 14.3125 17.046875 " fill-opacity="1" fill-rule="nonzero"/><path fill="#e98b1b" d="M 13.976562 17.015625 C 13.910156 17.011719 13.84375 17.003906 13.777344 16.996094 L 13.777344 15.824219 C 13.84375 15.832031 13.910156 15.839844 13.976562 15.84375 L 13.976562 17.015625 " fill-opacity="1" fill-rule="nonzero"/><path fill="#e98b1b" d="M 13.640625 16.980469 C 13.574219 16.972656 13.507812 16.964844 13.441406 16.953125 L 13.441406 15.785156 C 13.507812 15.792969 13.574219 15.800781 13.640625 15.808594 L 13.640625 16.980469 " fill-opacity="1" fill-rule="nonzero"/><path fill="#e98b1b" d="M 11.625 16.558594 C 11.558594 16.539062 11.492188 16.515625 11.425781 16.492188 L 11.425781 15.332031 C 11.492188 15.351562 11.558594 15.375 11.625 15.394531 L 11.625 16.558594 " fill-opacity="1" fill-rule="nonzero"/><path fill="#e98b1b" d="M 11.269531 16.4375 C 11.207031 16.414062 11.148438 16.390625 11.089844 16.363281 L 11.089844 15.207031 C 11.15625 15.234375 11.222656 15.257812 11.289062 15.28125 L 11.289062 16.417969 C 11.289062 16.421875 11.28125 16.429688 11.269531 16.4375 " fill-opacity="1" fill-rule="nonzero"/><path fill="#e98b1b" d="M 10.902344 16.28125 C 10.851562 16.257812 10.800781 16.234375 10.753906 16.210938 L 10.753906 15.058594 C 10.820312 15.089844 10.882812 15.121094 10.953125 15.148438 L 10.953125 16.253906 C 10.953125 16.265625 10.929688 16.277344 10.902344 16.28125 " fill-opacity="1" fill-rule="nonzero"/><path fill="#e98b1b" d="M 10.574219 16.117188 C 10.519531 16.085938 10.46875 16.054688 10.417969 16.023438 L 10.417969 14.878906 C 10.480469 14.917969 10.546875 14.953125 10.617188 14.992188 L 10.617188 16.089844 C 10.617188 16.101562 10.601562 16.109375 10.574219 16.117188 " fill-opacity="1" fill-rule="nonzero"/><path fill="#e98b1b" d="M 10.277344 15.925781 C 10.207031 15.875 10.144531 15.820312 10.082031 15.765625 L 10.082031 14.644531 C 10.144531 14.695312 10.210938 14.742188 10.28125 14.789062 L 10.28125 15.925781 L 10.277344 15.925781 " fill-opacity="1" fill-rule="nonzero"/><path fill="#e98b1b" d="M 9.945312 15.625 C 9.855469 15.523438 9.789062 15.417969 9.746094 15.308594 L 9.746094 14.492188 C 9.8125 14.519531 9.878906 14.546875 9.945312 14.574219 L 9.945312 15.625 " fill-opacity="1" fill-rule="nonzero"/><g clip-path="url(#cfac947c16)"><path fill="#f89e19" d="M 20.363281 13.183594 L 20.363281 11.929688 L 8.457031 11.929688 L 8.457031 13.183594 C 8.457031 14.34375 11.121094 15.285156 14.410156 15.285156 C 17.699219 15.285156 20.363281 14.34375 20.363281 13.183594 " fill-opacity="1" fill-rule="nonzero"/></g><g clip-path="url(#e3f03ade42)"><path fill="#f5c116" d="M 14.410156 13.941406 C 11.121094 13.941406 8.457031 13 8.457031 11.839844 C 8.457031 10.675781 11.121094 9.738281 14.410156 9.738281 C 17.699219 9.738281 20.363281 10.675781 20.363281 11.839844 C 20.363281 13 17.699219 13.941406 14.410156 13.941406 " fill-opacity="1" fill-rule="nonzero"/></g><path fill="#f89e19" d="M 14.769531 12.660156 C 15.007812 12.644531 15.199219 12.605469 15.351562 12.542969 C 15.5 12.480469 15.574219 12.40625 15.574219 12.320312 C 15.574219 12.246094 15.511719 12.179688 15.386719 12.125 C 15.261719 12.070312 15.054688 12.03125 14.769531 12 L 14.769531 12.660156 M 14.074219 10.863281 C 13.886719 10.886719 13.738281 10.925781 13.625 10.976562 C 13.515625 11.03125 13.460938 11.09375 13.460938 11.15625 C 13.460938 11.21875 13.511719 11.273438 13.613281 11.324219 C 13.714844 11.375 13.867188 11.417969 14.074219 11.449219 L 14.074219 10.863281 M 14.074219 12.636719 L 14.074219 11.929688 C 13.449219 11.867188 12.992188 11.769531 12.703125 11.644531 C 12.410156 11.515625 12.265625 11.359375 12.265625 11.179688 C 12.265625 10.992188 12.429688 10.839844 12.757812 10.714844 C 13.089844 10.585938 13.527344 10.515625 14.074219 10.496094 L 14.074219 10.328125 L 14.769531 10.328125 L 14.769531 10.496094 C 15.273438 10.519531 15.675781 10.578125 15.976562 10.679688 C 16.277344 10.78125 16.46875 10.914062 16.550781 11.082031 L 15.339844 11.140625 C 15.269531 11.007812 15.078125 10.917969 14.769531 10.871094 L 14.769531 11.527344 C 15.53125 11.601562 16.054688 11.695312 16.332031 11.8125 C 16.609375 11.929688 16.746094 12.078125 16.746094 12.261719 C 16.746094 12.464844 16.570312 12.636719 16.222656 12.773438 C 15.875 12.914062 15.390625 13 14.769531 13.03125 L 14.769531 13.347656 L 14.074219 13.347656 L 14.074219 13.039062 C 13.523438 13.015625 13.078125 12.945312 12.734375 12.824219 C 12.390625 12.699219 12.167969 12.53125 12.074219 12.308594 L 13.320312 12.261719 C 13.371094 12.351562 13.46875 12.429688 13.605469 12.492188 C 13.746094 12.558594 13.902344 12.605469 14.074219 12.636719 " fill-opacity="1" fill-rule="nonzero"/><path fill="#e98b1b" d="M 19.691406 14.027344 L 19.6875 14.023438 L 19.6875 12.890625 C 19.761719 12.839844 19.828125 12.792969 19.886719 12.742188 L 19.886719 13.867188 C 19.828125 13.921875 19.761719 13.972656 19.691406 14.027344 " fill-opacity="1" fill-rule="nonzero"/><path fill="#e98b1b" d="M 19.394531 14.214844 C 19.371094 14.207031 19.355469 14.199219 19.355469 14.1875 L 19.355469 13.089844 C 19.421875 13.050781 19.488281 13.015625 19.550781 12.976562 L 19.550781 14.121094 C 19.5 14.152344 19.449219 14.183594 19.394531 14.214844 " fill-opacity="1" fill-rule="nonzero"/><path fill="#e98b1b" d="M 20.027344 13.726562 L 20.027344 12.617188 C 20.0625 12.578125 20.101562 12.539062 20.132812 12.496094 C 20.164062 12.472656 20.195312 12.449219 20.222656 12.425781 L 20.222656 13.40625 C 20.179688 13.515625 20.113281 13.621094 20.027344 13.726562 " fill-opacity="1" fill-rule="nonzero"/><path fill="#e98b1b" d="M 19.066406 14.378906 C 19.039062 14.375 19.019531 14.363281 19.019531 14.351562 L 19.019531 13.25 C 19.085938 13.21875 19.152344 13.1875 19.214844 13.15625 L 19.214844 14.308594 C 19.167969 14.335938 19.117188 14.359375 19.066406 14.378906 " fill-opacity="1" fill-rule="nonzero"/><path fill="#e98b1b" d="M 18.699219 14.535156 C 18.691406 14.527344 18.679688 14.523438 18.679688 14.515625 L 18.679688 13.378906 C 18.75 13.355469 18.816406 13.332031 18.878906 13.304688 L 18.878906 14.464844 C 18.820312 14.488281 18.761719 14.511719 18.699219 14.535156 " fill-opacity="1" fill-rule="nonzero"/><path fill="#e98b1b" d="M 18.347656 14.65625 L 18.347656 13.492188 C 18.414062 13.472656 18.480469 13.453125 18.542969 13.429688 L 18.542969 14.589844 C 18.480469 14.613281 18.414062 14.636719 18.347656 14.65625 " fill-opacity="1" fill-rule="nonzero"/><path fill="#e98b1b" d="M 18.011719 14.757812 L 18.011719 13.589844 C 18.078125 13.574219 18.144531 13.554688 18.207031 13.535156 L 18.207031 14.699219 C 18.144531 14.71875 18.078125 14.738281 18.011719 14.757812 " fill-opacity="1" fill-rule="nonzero"/><path fill="#e98b1b" d="M 17.675781 14.84375 L 17.675781 13.675781 C 17.742188 13.660156 17.804688 13.644531 17.871094 13.628906 L 17.871094 14.792969 C 17.804688 14.808594 17.742188 14.828125 17.675781 14.84375 " fill-opacity="1" fill-rule="nonzero"/><path fill="#e98b1b" d="M 17.339844 14.917969 L 17.339844 13.746094 C 17.40625 13.734375 17.46875 13.71875 17.535156 13.707031 L 17.535156 14.875 C 17.46875 14.886719 17.40625 14.902344 17.339844 14.917969 " fill-opacity="1" fill-rule="nonzero"/><path fill="#e98b1b" d="M 17.003906 14.980469 L 17.003906 13.808594 C 17.070312 13.796875 17.132812 13.785156 17.199219 13.773438 L 17.199219 14.945312 C 17.132812 14.957031 17.070312 14.96875 17.003906 14.980469 " fill-opacity="1" fill-rule="nonzero"/><path fill="#e98b1b" d="M 16.667969 15.035156 L 16.667969 13.863281 C 16.734375 13.851562 16.800781 13.84375 16.863281 13.832031 L 16.863281 15.003906 C 16.800781 15.011719 16.734375 15.023438 16.667969 15.035156 " fill-opacity="1" fill-rule="nonzero"/><path fill="#e98b1b" d="M 12.152344 15.035156 C 12.085938 15.023438 12.019531 15.011719 11.957031 15.003906 L 11.957031 13.832031 C 12.019531 13.84375 12.085938 13.851562 12.152344 13.863281 L 12.152344 15.035156 " fill-opacity="1" fill-rule="nonzero"/><path fill="#e98b1b" d="M 11.816406 14.980469 C 11.75 14.96875 11.683594 14.957031 11.621094 14.945312 L 11.621094 13.773438 C 11.683594 13.785156 11.75 13.796875 11.816406 13.808594 L 11.816406 14.980469 " fill-opacity="1" fill-rule="nonzero"/><path fill="#e98b1b" d="M 11.480469 14.917969 C 11.414062 14.902344 11.347656 14.886719 11.285156 14.875 L 11.285156 13.707031 C 11.347656 13.71875 11.414062 13.734375 11.480469 13.746094 L 11.480469 14.917969 " fill-opacity="1" fill-rule="nonzero"/><path fill="#e98b1b" d="M 11.144531 14.84375 C 11.078125 14.828125 11.011719 14.808594 10.949219 14.792969 L 10.949219 13.628906 C 11.011719 13.644531 11.078125 13.660156 11.144531 13.675781 L 11.144531 14.84375 " fill-opacity="1" fill-rule="nonzero"/><path fill="#e98b1b" d="M 10.808594 14.757812 C 10.742188 14.738281 10.675781 14.71875 10.613281 14.699219 L 10.613281 13.535156 C 10.675781 13.554688 10.742188 13.574219 10.808594 13.589844 L 10.808594 14.757812 " fill-opacity="1" fill-rule="nonzero"/><path fill="#e98b1b" d="M 13.832031 15.183594 C 13.765625 15.179688 13.699219 15.175781 13.636719 15.175781 L 13.636719 14 C 13.699219 14.003906 13.765625 14.007812 13.832031 14.007812 L 13.832031 15.183594 " fill-opacity="1" fill-rule="nonzero"/><path fill="#e98b1b" d="M 13.496094 15.167969 C 13.429688 15.164062 13.363281 15.160156 13.300781 15.15625 L 13.300781 13.984375 C 13.363281 13.988281 13.429688 13.992188 13.496094 13.996094 L 13.496094 15.167969 " fill-opacity="1" fill-rule="nonzero"/><path fill="#e98b1b" d="M 14.167969 15.191406 C 14.101562 15.191406 14.035156 15.1875 13.972656 15.1875 L 13.972656 14.011719 C 14.035156 14.015625 14.101562 14.015625 14.167969 14.015625 L 14.167969 15.191406 " fill-opacity="1" fill-rule="nonzero"/><path fill="#e98b1b" d="M 14.410156 15.191406 C 14.375 15.191406 14.339844 15.191406 14.308594 15.191406 L 14.308594 14.019531 C 14.339844 14.019531 14.375 14.019531 14.410156 14.019531 C 14.441406 14.019531 14.472656 14.019531 14.503906 14.019531 L 14.503906 15.191406 C 14.472656 15.191406 14.441406 15.191406 14.410156 15.191406 " fill-opacity="1" fill-rule="nonzero"/><path fill="#e98b1b" d="M 14.644531 15.191406 L 14.644531 14.015625 C 14.707031 14.015625 14.773438 14.015625 14.839844 14.011719 L 14.839844 15.1875 C 14.773438 15.1875 14.707031 15.191406 14.644531 15.191406 " fill-opacity="1" fill-rule="nonzero"/><path fill="#e98b1b" d="M 14.980469 15.183594 L 14.980469 14.011719 C 15.042969 14.007812 15.109375 14.003906 15.175781 14 L 15.175781 15.175781 C 15.109375 15.175781 15.042969 15.179688 14.980469 15.183594 " fill-opacity="1" fill-rule="nonzero"/><path fill="#e98b1b" d="M 15.316406 15.167969 L 15.316406 13.996094 C 15.378906 13.992188 15.445312 13.988281 15.511719 13.984375 L 15.511719 15.15625 C 15.445312 15.160156 15.378906 15.164062 15.316406 15.167969 " fill-opacity="1" fill-rule="nonzero"/><path fill="#e98b1b" d="M 15.648438 15.144531 L 15.648438 13.972656 C 15.714844 13.96875 15.78125 13.964844 15.847656 13.957031 L 15.847656 15.128906 C 15.78125 15.136719 15.714844 15.140625 15.648438 15.144531 " fill-opacity="1" fill-rule="nonzero"/><path fill="#e98b1b" d="M 15.984375 15.117188 L 15.984375 13.945312 C 16.050781 13.9375 16.117188 13.933594 16.183594 13.925781 L 16.183594 15.097656 C 16.117188 15.105469 16.050781 15.109375 15.984375 15.117188 " fill-opacity="1" fill-rule="nonzero"/><path fill="#e98b1b" d="M 16.320312 15.078125 L 16.320312 13.90625 C 16.386719 13.898438 16.453125 13.890625 16.519531 13.882812 L 16.519531 15.054688 C 16.453125 15.0625 16.386719 15.070312 16.320312 15.078125 " fill-opacity="1" fill-rule="nonzero"/><path fill="#e98b1b" d="M 13.160156 15.144531 C 13.09375 15.140625 13.027344 15.136719 12.964844 15.128906 L 12.964844 13.957031 C 13.027344 13.960938 13.09375 13.96875 13.160156 13.972656 L 13.160156 15.144531 " fill-opacity="1" fill-rule="nonzero"/><path fill="#e98b1b" d="M 12.824219 15.117188 C 12.757812 15.109375 12.691406 15.101562 12.628906 15.09375 L 12.628906 13.921875 C 12.691406 13.929688 12.757812 13.9375 12.824219 13.945312 L 12.824219 15.117188 " fill-opacity="1" fill-rule="nonzero"/><path fill="#e98b1b" d="M 12.488281 15.078125 C 12.421875 15.070312 12.355469 15.0625 12.292969 15.054688 L 12.292969 13.882812 C 12.355469 13.890625 12.421875 13.898438 12.488281 13.90625 L 12.488281 15.078125 " fill-opacity="1" fill-rule="nonzero"/><path fill="#e98b1b" d="M 10.472656 14.65625 C 10.40625 14.636719 10.339844 14.613281 10.277344 14.589844 L 10.277344 13.429688 C 10.339844 13.453125 10.40625 13.472656 10.472656 13.492188 L 10.472656 14.65625 " fill-opacity="1" fill-rule="nonzero"/><path fill="#e98b1b" d="M 10.121094 14.535156 C 10.058594 14.511719 10 14.488281 9.941406 14.464844 L 9.941406 13.304688 C 10.003906 13.332031 10.070312 13.355469 10.136719 13.378906 L 10.136719 14.515625 C 10.136719 14.523438 10.128906 14.527344 10.121094 14.535156 " fill-opacity="1" fill-rule="nonzero"/><path fill="#e98b1b" d="M 9.75 14.378906 C 9.699219 14.359375 9.652344 14.335938 9.605469 14.308594 L 9.605469 13.15625 C 9.667969 13.1875 9.734375 13.21875 9.800781 13.25 L 9.800781 14.351562 C 9.800781 14.363281 9.78125 14.375 9.75 14.378906 " fill-opacity="1" fill-rule="nonzero"/><path fill="#e98b1b" d="M 9.425781 14.214844 C 9.371094 14.183594 9.316406 14.152344 9.269531 14.121094 L 9.269531 12.976562 C 9.332031 13.015625 9.398438 13.050781 9.464844 13.089844 L 9.464844 14.1875 C 9.464844 14.199219 9.449219 14.207031 9.425781 14.214844 " fill-opacity="1" fill-rule="nonzero"/><g clip-path="url(#8b6bdcb020)"><path fill="#e98b1b" d="M 9.128906 14.027344 C 9.058594 13.972656 8.992188 13.921875 8.933594 13.867188 L 8.933594 12.742188 C 8.992188 12.792969 9.058594 12.839844 9.128906 12.890625 L 9.128906 14.027344 " fill-opacity="1" fill-rule="nonzero"/></g><g clip-path="url(#eb6936b653)"><path fill="#e98b1b" d="M 8.792969 13.726562 C 8.707031 13.621094 8.640625 13.515625 8.597656 13.40625 L 8.597656 12.371094 C 8.648438 12.453125 8.714844 12.535156 8.792969 12.617188 L 8.792969 13.726562 " fill-opacity="1" fill-rule="nonzero"/></g><g clip-path="url(#0e49a92f05)"><path fill="#f89e19" d="M 20.695312 11.605469 L 20.695312 10.351562 L 8.789062 10.351562 L 8.789062 11.605469 C 8.789062 12.765625 11.453125 13.707031 14.742188 13.707031 C 18.03125 13.707031 20.695312 12.765625 20.695312 11.605469 " fill-opacity="1" fill-rule="nonzero"/></g><g clip-path="url(#577af184cb)"><path fill="#f5c116" d="M 14.742188 12.359375 C 11.453125 12.359375 8.789062 11.417969 8.789062 10.257812 C 8.789062 9.097656 11.453125 8.15625 14.742188 8.15625 C 18.03125 8.15625 20.695312 9.097656 20.695312 10.257812 C 20.695312 11.417969 18.03125 12.359375 14.742188 12.359375 " fill-opacity="1" fill-rule="nonzero"/></g><path fill="#f89e19" d="M 15.101562 11.078125 C 15.339844 11.0625 15.53125 11.023438 15.683594 10.960938 C 15.832031 10.898438 15.90625 10.828125 15.90625 10.742188 C 15.90625 10.667969 15.84375 10.601562 15.71875 10.546875 C 15.59375 10.492188 15.386719 10.449219 15.101562 10.421875 L 15.101562 11.078125 M 14.40625 9.285156 C 14.21875 9.308594 14.070312 9.34375 13.957031 9.398438 C 13.847656 9.453125 13.789062 9.511719 13.789062 9.578125 C 13.789062 9.636719 13.84375 9.691406 13.945312 9.746094 C 14.046875 9.796875 14.199219 9.835938 14.40625 9.867188 L 14.40625 9.285156 M 14.40625 11.054688 L 14.40625 10.347656 C 13.78125 10.285156 13.324219 10.191406 13.035156 10.0625 C 12.742188 9.933594 12.597656 9.78125 12.597656 9.597656 C 12.597656 9.414062 12.761719 9.257812 13.089844 9.132812 C 13.421875 9.007812 13.859375 8.9375 14.40625 8.917969 L 14.40625 8.75 L 15.101562 8.75 L 15.101562 8.917969 C 15.605469 8.9375 16.007812 9 16.308594 9.101562 C 16.609375 9.199219 16.800781 9.335938 16.882812 9.503906 L 15.671875 9.558594 C 15.601562 9.425781 15.410156 9.335938 15.101562 9.289062 L 15.101562 9.949219 C 15.863281 10.023438 16.386719 10.117188 16.660156 10.234375 C 16.9375 10.351562 17.078125 10.5 17.078125 10.679688 C 17.078125 10.886719 16.902344 11.054688 16.554688 11.195312 C 16.207031 11.335938 15.722656 11.421875 15.101562 11.453125 L 15.101562 11.765625 L 14.40625 11.765625 L 14.40625 11.460938 C 13.855469 11.4375 13.410156 11.363281 13.0625 11.242188 C 12.71875 11.121094 12.5 10.949219 12.40625 10.726562 L 13.652344 10.679688 C 13.703125 10.769531 13.796875 10.847656 13.9375 10.914062 C 14.078125 10.980469 14.234375 11.027344 14.40625 11.054688 " fill-opacity="1" fill-rule="nonzero"/><path fill="#e98b1b" d="M 20.023438 12.445312 L 20.019531 12.445312 L 20.019531 11.308594 C 20.089844 11.261719 20.160156 11.210938 20.21875 11.164062 L 20.21875 12.285156 C 20.160156 12.339844 20.09375 12.394531 20.023438 12.445312 " fill-opacity="1" fill-rule="nonzero"/><path fill="#e98b1b" d="M 19.726562 12.636719 C 19.703125 12.628906 19.683594 12.617188 19.683594 12.609375 L 19.683594 11.507812 C 19.753906 11.472656 19.820312 11.433594 19.882812 11.398438 L 19.882812 12.542969 C 19.832031 12.574219 19.78125 12.605469 19.726562 12.636719 " fill-opacity="1" fill-rule="nonzero"/><path fill="#e98b1b" d="M 20.355469 12.144531 L 20.355469 11.035156 C 20.4375 10.957031 20.503906 10.875 20.554688 10.792969 L 20.554688 11.828125 C 20.511719 11.9375 20.445312 12.042969 20.355469 12.144531 " fill-opacity="1" fill-rule="nonzero"/><path fill="#e98b1b" d="M 19.398438 12.800781 C 19.371094 12.792969 19.347656 12.785156 19.347656 12.773438 L 19.347656 11.667969 C 19.417969 11.640625 19.484375 11.609375 19.546875 11.578125 L 19.546875 12.730469 C 19.5 12.753906 19.449219 12.777344 19.398438 12.800781 " fill-opacity="1" fill-rule="nonzero"/><path fill="#e98b1b" d="M 19.03125 12.953125 C 19.019531 12.949219 19.015625 12.941406 19.015625 12.933594 L 19.015625 11.800781 C 19.082031 11.777344 19.148438 11.75 19.210938 11.726562 L 19.210938 12.882812 C 19.152344 12.90625 19.09375 12.929688 19.03125 12.953125 " fill-opacity="1" fill-rule="nonzero"/><path fill="#e98b1b" d="M 18.679688 13.078125 L 18.679688 11.914062 C 18.746094 11.894531 18.8125 11.871094 18.875 11.851562 L 18.875 13.011719 C 18.8125 13.035156 18.746094 13.058594 18.679688 13.078125 " fill-opacity="1" fill-rule="nonzero"/><path fill="#e98b1b" d="M 18.339844 13.175781 L 18.339844 12.011719 C 18.410156 11.992188 18.476562 11.976562 18.539062 11.957031 L 18.539062 13.121094 C 18.472656 13.140625 18.410156 13.160156 18.339844 13.175781 " fill-opacity="1" fill-rule="nonzero"/><path fill="#e98b1b" d="M 18.003906 13.261719 L 18.003906 12.09375 C 18.074219 12.082031 18.136719 12.0625 18.203125 12.046875 L 18.203125 13.214844 C 18.136719 13.230469 18.074219 13.246094 18.003906 13.261719 " fill-opacity="1" fill-rule="nonzero"/><path fill="#e98b1b" d="M 17.667969 13.335938 L 17.667969 12.167969 C 17.738281 12.15625 17.800781 12.140625 17.867188 12.125 L 17.867188 13.292969 C 17.800781 13.308594 17.738281 13.324219 17.667969 13.335938 " fill-opacity="1" fill-rule="nonzero"/><path fill="#e98b1b" d="M 17.335938 13.398438 L 17.335938 12.230469 C 17.402344 12.21875 17.464844 12.207031 17.53125 12.195312 L 17.53125 13.363281 C 17.46875 13.375 17.402344 13.390625 17.335938 13.398438 " fill-opacity="1" fill-rule="nonzero"/><path fill="#e98b1b" d="M 17 13.453125 L 17 12.285156 C 17.066406 12.273438 17.128906 12.261719 17.195312 12.253906 L 17.195312 13.421875 C 17.128906 13.433594 17.066406 13.445312 17 13.453125 " fill-opacity="1" fill-rule="nonzero"/><path fill="#e98b1b" d="M 12.484375 13.453125 C 12.417969 13.445312 12.351562 13.433594 12.289062 13.421875 L 12.289062 12.253906 C 12.351562 12.261719 12.417969 12.273438 12.484375 12.285156 L 12.484375 13.453125 " fill-opacity="1" fill-rule="nonzero"/><path fill="#e98b1b" d="M 12.148438 13.398438 C 12.082031 13.390625 12.015625 13.375 11.953125 13.363281 L 11.953125 12.195312 C 12.015625 12.207031 12.082031 12.21875 12.148438 12.230469 L 12.148438 13.398438 " fill-opacity="1" fill-rule="nonzero"/><path fill="#e98b1b" d="M 11.8125 13.335938 C 11.746094 13.324219 11.679688 13.308594 11.617188 13.292969 L 11.617188 12.125 C 11.679688 12.140625 11.746094 12.15625 11.8125 12.167969 L 11.8125 13.335938 " fill-opacity="1" fill-rule="nonzero"/><path fill="#e98b1b" d="M 11.476562 13.261719 C 11.410156 13.246094 11.34375 13.230469 11.28125 13.214844 L 11.28125 12.046875 C 11.34375 12.0625 11.410156 12.082031 11.476562 12.09375 L 11.476562 13.261719 " fill-opacity="1" fill-rule="nonzero"/><path fill="#e98b1b" d="M 11.140625 13.175781 C 11.074219 13.160156 11.007812 13.140625 10.945312 13.121094 L 10.945312 11.957031 C 11.007812 11.976562 11.074219 11.992188 11.140625 12.011719 L 11.140625 13.175781 " fill-opacity="1" fill-rule="nonzero"/><path fill="#e98b1b" d="M 14.164062 13.601562 C 14.097656 13.601562 14.03125 13.597656 13.96875 13.59375 L 13.96875 12.421875 C 14.03125 12.425781 14.097656 12.425781 14.164062 12.429688 L 14.164062 13.601562 " fill-opacity="1" fill-rule="nonzero"/><path fill="#e98b1b" d="M 13.828125 13.589844 C 13.761719 13.585938 13.695312 13.582031 13.632812 13.574219 L 13.632812 12.402344 C 13.695312 12.40625 13.761719 12.410156 13.828125 12.414062 L 13.828125 13.589844 " fill-opacity="1" fill-rule="nonzero"/><path fill="#e98b1b" d="M 14.5 13.609375 C 14.433594 13.609375 14.367188 13.609375 14.304688 13.605469 L 14.304688 12.433594 C 14.367188 12.433594 14.433594 12.4375 14.5 12.4375 L 14.5 13.609375 " fill-opacity="1" fill-rule="nonzero"/><path fill="#e98b1b" d="M 14.742188 13.613281 C 14.707031 13.613281 14.671875 13.613281 14.636719 13.613281 L 14.636719 12.4375 C 14.671875 12.4375 14.707031 12.441406 14.742188 12.441406 C 14.773438 12.441406 14.804688 12.4375 14.835938 12.4375 L 14.835938 13.613281 C 14.804688 13.613281 14.773438 13.613281 14.742188 13.613281 " fill-opacity="1" fill-rule="nonzero"/><path fill="#e98b1b" d="M 14.972656 13.609375 L 14.972656 12.4375 C 15.039062 12.4375 15.105469 12.4375 15.171875 12.433594 L 15.171875 13.605469 C 15.105469 13.609375 15.039062 13.609375 14.972656 13.609375 " fill-opacity="1" fill-rule="nonzero"/><path fill="#e98b1b" d="M 15.308594 13.601562 L 15.308594 12.429688 C 15.375 12.425781 15.441406 12.425781 15.507812 12.421875 L 15.507812 13.59375 C 15.441406 13.597656 15.375 13.601562 15.308594 13.601562 " fill-opacity="1" fill-rule="nonzero"/><path fill="#e98b1b" d="M 15.644531 13.589844 L 15.644531 12.414062 C 15.710938 12.410156 15.777344 12.40625 15.84375 12.402344 L 15.84375 13.578125 C 15.777344 13.582031 15.710938 13.585938 15.644531 13.589844 " fill-opacity="1" fill-rule="nonzero"/><path fill="#e98b1b" d="M 15.980469 13.566406 L 15.980469 12.394531 C 16.046875 12.390625 16.113281 12.382812 16.179688 12.378906 L 16.179688 13.550781 C 16.113281 13.554688 16.046875 13.5625 15.980469 13.566406 " fill-opacity="1" fill-rule="nonzero"/><path fill="#e98b1b" d="M 16.316406 13.535156 L 16.316406 12.363281 C 16.382812 12.359375 16.449219 12.351562 16.515625 12.34375 L 16.515625 13.515625 C 16.449219 13.523438 16.382812 13.53125 16.316406 13.535156 " fill-opacity="1" fill-rule="nonzero"/><path fill="#e98b1b" d="M 16.652344 13.5 L 16.652344 12.328125 C 16.71875 12.320312 16.785156 12.3125 16.851562 12.304688 L 16.851562 13.476562 C 16.785156 13.484375 16.71875 13.492188 16.652344 13.5 " fill-opacity="1" fill-rule="nonzero"/><path fill="#e98b1b" d="M 13.492188 13.566406 C 13.425781 13.5625 13.359375 13.554688 13.296875 13.550781 L 13.296875 12.378906 C 13.359375 12.382812 13.425781 12.386719 13.492188 12.394531 L 13.492188 13.566406 " fill-opacity="1" fill-rule="nonzero"/><path fill="#e98b1b" d="M 13.15625 13.535156 C 13.089844 13.53125 13.023438 13.523438 12.960938 13.515625 L 12.960938 12.34375 C 13.023438 12.351562 13.089844 12.359375 13.15625 12.363281 L 13.15625 13.535156 " fill-opacity="1" fill-rule="nonzero"/><path fill="#e98b1b" d="M 12.820312 13.5 C 12.753906 13.492188 12.6875 13.480469 12.625 13.472656 L 12.625 12.300781 C 12.6875 12.3125 12.753906 12.320312 12.820312 12.328125 L 12.820312 13.5 " fill-opacity="1" fill-rule="nonzero"/><path fill="#e98b1b" d="M 10.804688 13.078125 C 10.738281 13.058594 10.671875 13.035156 10.609375 13.011719 L 10.609375 11.851562 C 10.671875 11.871094 10.738281 11.894531 10.804688 11.914062 L 10.804688 13.078125 " fill-opacity="1" fill-rule="nonzero"/><path fill="#e98b1b" d="M 10.449219 12.953125 C 10.390625 12.929688 10.328125 12.90625 10.273438 12.882812 L 10.273438 11.726562 C 10.335938 11.75 10.402344 11.777344 10.46875 11.800781 L 10.46875 12.933594 C 10.46875 12.941406 10.460938 12.949219 10.449219 12.953125 " fill-opacity="1" fill-rule="nonzero"/><path fill="#e98b1b" d="M 10.082031 12.800781 C 10.03125 12.777344 9.984375 12.753906 9.9375 12.730469 L 9.9375 11.578125 C 10 11.609375 10.066406 11.640625 10.132812 11.667969 L 10.132812 12.773438 C 10.132812 12.785156 10.113281 12.792969 10.082031 12.800781 " fill-opacity="1" fill-rule="nonzero"/><path fill="#e98b1b" d="M 9.757812 12.636719 C 9.703125 12.605469 9.648438 12.574219 9.601562 12.542969 L 9.601562 11.398438 C 9.664062 11.433594 9.726562 11.472656 9.796875 11.507812 L 9.796875 12.609375 C 9.796875 12.617188 9.78125 12.628906 9.757812 12.636719 " fill-opacity="1" fill-rule="nonzero"/><path fill="#e98b1b" d="M 9.460938 12.445312 C 9.390625 12.394531 9.324219 12.339844 9.265625 12.285156 L 9.265625 11.164062 C 9.324219 11.210938 9.390625 11.261719 9.460938 11.308594 L 9.460938 12.445312 " fill-opacity="1" fill-rule="nonzero"/><g clip-path="url(#adfd634c44)"><path fill="#e98b1b" d="M 9.125 12.144531 C 9.039062 12.042969 8.972656 11.9375 8.929688 11.828125 L 8.929688 10.792969 C 8.980469 10.875 9.046875 10.957031 9.125 11.035156 L 9.125 12.144531 " fill-opacity="1" fill-rule="nonzero"/></g><g clip-path="url(#4396556b3f)"><path fill="#f89e19" d="M 21.515625 9.625 L 21.515625 8.371094 L 9.605469 8.371094 L 9.605469 9.625 C 9.605469 10.785156 12.273438 11.726562 15.558594 11.726562 C 18.847656 11.726562 21.515625 10.785156 21.515625 9.625 " fill-opacity="1" fill-rule="nonzero"/></g><g clip-path="url(#961d0eb92b)"><path fill="#f5c116" d="M 15.558594 10.378906 C 12.273438 10.378906 9.605469 9.4375 9.605469 8.277344 C 9.605469 7.117188 12.273438 6.175781 15.558594 6.175781 C 18.847656 6.175781 21.515625 7.117188 21.515625 8.277344 C 21.515625 9.4375 18.847656 10.378906 15.558594 10.378906 " fill-opacity="1" fill-rule="nonzero"/></g><g clip-path="url(#9fec1a3fe8)"><path fill="#f89e19" d="M 15.917969 9.097656 C 16.15625 9.082031 16.351562 9.042969 16.5 8.980469 C 16.652344 8.917969 16.726562 8.847656 16.726562 8.761719 C 16.726562 8.6875 16.664062 8.621094 16.539062 8.566406 C 16.410156 8.511719 16.207031 8.46875 15.917969 8.441406 Z M 15.226562 7.304688 C 15.039062 7.328125 14.886719 7.363281 14.777344 7.417969 C 14.664062 7.472656 14.609375 7.53125 14.609375 7.597656 C 14.609375 7.65625 14.660156 7.710938 14.761719 7.765625 C 14.863281 7.816406 15.019531 7.855469 15.226562 7.886719 Z M 15.226562 9.074219 L 15.226562 8.367188 C 14.601562 8.304688 14.144531 8.210938 13.851562 8.082031 C 13.5625 7.953125 13.414062 7.800781 13.414062 7.617188 C 13.414062 7.433594 13.582031 7.277344 13.910156 7.152344 C 14.238281 7.027344 14.679688 6.957031 15.226562 6.9375 L 15.226562 6.769531 L 15.917969 6.769531 L 15.917969 6.9375 C 16.425781 6.957031 16.828125 7.019531 17.128906 7.121094 C 17.425781 7.21875 17.617188 7.355469 17.699219 7.523438 L 16.492188 7.578125 C 16.417969 7.445312 16.226562 7.355469 15.917969 7.308594 L 15.917969 7.96875 C 16.683594 8.042969 17.203125 8.136719 17.480469 8.253906 C 17.757812 8.371094 17.894531 8.519531 17.894531 8.699219 C 17.894531 8.90625 17.722656 9.074219 17.375 9.214844 C 17.023438 9.355469 16.539062 9.441406 15.917969 9.472656 L 15.917969 9.785156 L 15.226562 9.785156 L 15.226562 9.480469 C 14.675781 9.457031 14.226562 9.382812 13.882812 9.261719 C 13.539062 9.140625 13.320312 8.96875 13.222656 8.75 L 14.472656 8.699219 C 14.523438 8.789062 14.617188 8.867188 14.757812 8.933594 C 14.898438 9 15.054688 9.046875 15.226562 9.074219 " fill-opacity="1" fill-rule="nonzero"/></g><g clip-path="url(#36871d3bea)"><path fill="#e98b1b" d="M 20.839844 10.464844 L 20.839844 9.328125 C 20.910156 9.28125 20.976562 9.234375 21.039062 9.183594 L 21.039062 10.304688 C 20.976562 10.359375 20.914062 10.414062 20.839844 10.464844 " fill-opacity="1" fill-rule="nonzero"/></g><path fill="#e98b1b" d="M 20.542969 10.65625 C 20.519531 10.648438 20.503906 10.636719 20.503906 10.625 L 20.503906 9.527344 C 20.574219 9.492188 20.640625 9.453125 20.703125 9.417969 L 20.703125 10.5625 C 20.652344 10.59375 20.597656 10.625 20.542969 10.65625 " fill-opacity="1" fill-rule="nonzero"/><g clip-path="url(#65616827f1)"><path fill="#e98b1b" d="M 21.175781 10.164062 L 21.175781 9.054688 C 21.253906 8.976562 21.320312 8.894531 21.371094 8.8125 L 21.371094 9.847656 C 21.332031 9.957031 21.265625 10.0625 21.175781 10.164062 " fill-opacity="1" fill-rule="nonzero"/></g><path fill="#e98b1b" d="M 20.21875 10.820312 C 20.1875 10.816406 20.167969 10.804688 20.167969 10.789062 L 20.167969 9.6875 C 20.238281 9.660156 20.300781 9.628906 20.367188 9.597656 L 20.367188 10.75 C 20.316406 10.773438 20.269531 10.796875 20.21875 10.820312 " fill-opacity="1" fill-rule="nonzero"/><path fill="#e98b1b" d="M 19.851562 10.972656 C 19.839844 10.96875 19.832031 10.960938 19.832031 10.953125 L 19.832031 9.820312 C 19.898438 9.796875 19.964844 9.769531 20.03125 9.746094 L 20.03125 10.902344 C 19.972656 10.925781 19.910156 10.949219 19.851562 10.972656 " fill-opacity="1" fill-rule="nonzero"/><path fill="#e98b1b" d="M 19.496094 11.097656 L 19.496094 9.933594 C 19.5625 9.914062 19.628906 9.890625 19.695312 9.871094 L 19.695312 11.03125 C 19.628906 11.054688 19.5625 11.078125 19.496094 11.097656 " fill-opacity="1" fill-rule="nonzero"/><path fill="#e98b1b" d="M 19.160156 11.195312 L 19.160156 10.03125 C 19.226562 10.015625 19.292969 9.996094 19.359375 9.976562 L 19.359375 11.140625 C 19.292969 11.160156 19.226562 11.179688 19.160156 11.195312 " fill-opacity="1" fill-rule="nonzero"/><path fill="#e98b1b" d="M 18.824219 11.28125 L 18.824219 10.117188 C 18.890625 10.097656 18.957031 10.082031 19.023438 10.066406 L 19.023438 11.234375 C 18.957031 11.25 18.890625 11.265625 18.824219 11.28125 " fill-opacity="1" fill-rule="nonzero"/><path fill="#e98b1b" d="M 18.488281 11.355469 L 18.488281 10.1875 C 18.554688 10.175781 18.621094 10.160156 18.6875 10.144531 L 18.6875 11.3125 C 18.621094 11.328125 18.554688 11.34375 18.488281 11.355469 " fill-opacity="1" fill-rule="nonzero"/><path fill="#e98b1b" d="M 18.152344 11.417969 L 18.152344 10.25 C 18.21875 10.238281 18.285156 10.226562 18.351562 10.214844 L 18.351562 11.382812 C 18.285156 11.394531 18.21875 11.410156 18.152344 11.417969 " fill-opacity="1" fill-rule="nonzero"/><path fill="#e98b1b" d="M 17.816406 11.472656 L 17.816406 10.304688 C 17.882812 10.292969 17.949219 10.28125 18.015625 10.273438 L 18.015625 11.441406 C 17.949219 11.453125 17.882812 11.464844 17.816406 11.472656 " fill-opacity="1" fill-rule="nonzero"/><path fill="#e98b1b" d="M 13.304688 11.472656 C 13.238281 11.464844 13.171875 11.453125 13.105469 11.441406 L 13.105469 10.273438 C 13.171875 10.28125 13.238281 10.292969 13.304688 10.304688 L 13.304688 11.472656 " fill-opacity="1" fill-rule="nonzero"/><path fill="#e98b1b" d="M 12.96875 11.417969 C 12.902344 11.410156 12.835938 11.394531 12.769531 11.382812 L 12.769531 10.214844 C 12.835938 10.226562 12.902344 10.238281 12.96875 10.25 L 12.96875 11.417969 " fill-opacity="1" fill-rule="nonzero"/><path fill="#e98b1b" d="M 12.632812 11.355469 C 12.566406 11.34375 12.5 11.328125 12.433594 11.3125 L 12.433594 10.144531 C 12.5 10.160156 12.566406 10.175781 12.632812 10.1875 L 12.632812 11.355469 " fill-opacity="1" fill-rule="nonzero"/><path fill="#e98b1b" d="M 12.296875 11.28125 C 12.230469 11.265625 12.164062 11.25 12.097656 11.234375 L 12.097656 10.066406 C 12.164062 10.082031 12.230469 10.097656 12.296875 10.117188 L 12.296875 11.28125 " fill-opacity="1" fill-rule="nonzero"/><path fill="#e98b1b" d="M 11.960938 11.195312 C 11.894531 11.179688 11.828125 11.160156 11.761719 11.140625 L 11.761719 9.976562 C 11.828125 9.996094 11.894531 10.015625 11.960938 10.03125 L 11.960938 11.195312 " fill-opacity="1" fill-rule="nonzero"/><path fill="#e98b1b" d="M 14.984375 11.621094 C 14.917969 11.621094 14.851562 11.617188 14.785156 11.613281 L 14.785156 10.441406 C 14.851562 10.445312 14.917969 10.449219 14.984375 10.449219 L 14.984375 11.621094 " fill-opacity="1" fill-rule="nonzero"/><path fill="#e98b1b" d="M 14.648438 11.609375 C 14.582031 11.605469 14.515625 11.601562 14.449219 11.59375 L 14.449219 10.421875 C 14.515625 10.425781 14.582031 10.429688 14.648438 10.433594 L 14.648438 11.609375 " fill-opacity="1" fill-rule="nonzero"/><path fill="#e98b1b" d="M 15.320312 11.628906 C 15.253906 11.628906 15.1875 11.628906 15.121094 11.625 L 15.121094 10.453125 C 15.1875 10.453125 15.253906 10.457031 15.320312 10.457031 L 15.320312 11.628906 " fill-opacity="1" fill-rule="nonzero"/><path fill="#e98b1b" d="M 15.558594 11.632812 C 15.527344 11.632812 15.492188 11.632812 15.457031 11.632812 L 15.457031 10.457031 C 15.492188 10.457031 15.527344 10.460938 15.558594 10.460938 C 15.59375 10.460938 15.625 10.457031 15.65625 10.457031 L 15.65625 11.632812 C 15.625 11.632812 15.59375 11.632812 15.558594 11.632812 " fill-opacity="1" fill-rule="nonzero"/><path fill="#e98b1b" d="M 15.792969 11.628906 L 15.792969 10.457031 C 15.859375 10.457031 15.925781 10.457031 15.992188 10.453125 L 15.992188 11.625 C 15.925781 11.628906 15.859375 11.628906 15.792969 11.628906 " fill-opacity="1" fill-rule="nonzero"/><path fill="#e98b1b" d="M 16.128906 11.621094 L 16.128906 10.449219 C 16.195312 10.449219 16.261719 10.445312 16.328125 10.441406 L 16.328125 11.613281 C 16.261719 11.617188 16.195312 11.621094 16.128906 11.621094 " fill-opacity="1" fill-rule="nonzero"/><path fill="#e98b1b" d="M 16.464844 11.609375 L 16.464844 10.433594 C 16.53125 10.433594 16.597656 10.425781 16.664062 10.421875 L 16.664062 11.597656 C 16.597656 11.601562 16.53125 11.605469 16.464844 11.609375 " fill-opacity="1" fill-rule="nonzero"/><path fill="#e98b1b" d="M 16.800781 11.585938 L 16.800781 10.414062 C 16.867188 10.410156 16.933594 10.402344 17 10.398438 L 17 11.570312 C 16.933594 11.574219 16.867188 11.582031 16.800781 11.585938 " fill-opacity="1" fill-rule="nonzero"/><path fill="#e98b1b" d="M 17.136719 11.554688 L 17.136719 10.382812 C 17.203125 10.378906 17.269531 10.371094 17.335938 10.363281 L 17.335938 11.535156 C 17.269531 11.542969 17.203125 11.550781 17.136719 11.554688 " fill-opacity="1" fill-rule="nonzero"/><path fill="#e98b1b" d="M 17.472656 11.519531 L 17.472656 10.347656 C 17.539062 10.339844 17.605469 10.332031 17.667969 10.324219 L 17.667969 11.496094 C 17.605469 11.503906 17.539062 11.511719 17.472656 11.519531 " fill-opacity="1" fill-rule="nonzero"/><path fill="#e98b1b" d="M 14.3125 11.585938 C 14.246094 11.582031 14.179688 11.574219 14.113281 11.570312 L 14.113281 10.398438 C 14.179688 10.402344 14.246094 10.40625 14.3125 10.414062 L 14.3125 11.585938 " fill-opacity="1" fill-rule="nonzero"/><path fill="#e98b1b" d="M 13.976562 11.554688 C 13.910156 11.550781 13.84375 11.542969 13.777344 11.535156 L 13.777344 10.363281 C 13.84375 10.371094 13.910156 10.378906 13.976562 10.382812 L 13.976562 11.554688 " fill-opacity="1" fill-rule="nonzero"/><path fill="#e98b1b" d="M 13.640625 11.519531 C 13.574219 11.511719 13.507812 11.503906 13.441406 11.492188 L 13.441406 10.320312 C 13.507812 10.332031 13.574219 10.339844 13.640625 10.347656 L 13.640625 11.519531 " fill-opacity="1" fill-rule="nonzero"/><path fill="#e98b1b" d="M 11.625 11.097656 C 11.558594 11.078125 11.492188 11.054688 11.425781 11.03125 L 11.425781 9.871094 C 11.492188 9.890625 11.558594 9.914062 11.625 9.933594 L 11.625 11.097656 " fill-opacity="1" fill-rule="nonzero"/><path fill="#e98b1b" d="M 11.269531 10.972656 C 11.207031 10.949219 11.148438 10.925781 11.089844 10.902344 L 11.089844 9.746094 C 11.15625 9.769531 11.222656 9.796875 11.289062 9.820312 L 11.289062 10.953125 C 11.289062 10.960938 11.28125 10.96875 11.269531 10.972656 " fill-opacity="1" fill-rule="nonzero"/><path fill="#e98b1b" d="M 10.902344 10.820312 C 10.851562 10.796875 10.800781 10.773438 10.753906 10.75 L 10.753906 9.597656 C 10.820312 9.628906 10.882812 9.660156 10.953125 9.6875 L 10.953125 10.789062 C 10.953125 10.804688 10.929688 10.816406 10.902344 10.820312 " fill-opacity="1" fill-rule="nonzero"/><path fill="#e98b1b" d="M 10.574219 10.65625 C 10.519531 10.625 10.46875 10.59375 10.417969 10.5625 L 10.417969 9.417969 C 10.480469 9.453125 10.546875 9.492188 10.617188 9.527344 L 10.617188 10.625 C 10.617188 10.636719 10.601562 10.648438 10.574219 10.65625 " fill-opacity="1" fill-rule="nonzero"/><path fill="#e98b1b" d="M 10.277344 10.464844 C 10.207031 10.414062 10.144531 10.359375 10.082031 10.304688 L 10.082031 9.183594 C 10.144531 9.234375 10.210938 9.28125 10.28125 9.328125 L 10.28125 10.464844 L 10.277344 10.464844 " fill-opacity="1" fill-rule="nonzero"/><path fill="#e98b1b" d="M 9.945312 10.164062 C 9.855469 10.0625 9.789062 9.957031 9.746094 9.847656 L 9.746094 8.8125 C 9.800781 8.894531 9.867188 8.976562 9.945312 9.054688 L 9.945312 10.164062 " fill-opacity="1" fill-rule="nonzero"/></svg>