<svg xmlns="http://www.w3.org/2000/svg" xmlns:xlink="http://www.w3.org/1999/xlink" width="910" zoomAndPan="magnify" viewBox="0 0 682.5 52.499999" height="70" preserveAspectRatio="xMidYMid meet" version="1.0"><defs><g/><clipPath id="b0f2dc8854"><path d="M 2.972656 0 L 679.03125 0 L 679.03125 52.003906 L 2.972656 52.003906 Z M 2.972656 0 " clip-rule="nonzero"/></clipPath><clipPath id="ee51869264"><path d="M 2.972656 0 L 55.015625 0 L 55.015625 52.003906 L 2.972656 52.003906 Z M 2.972656 0 " clip-rule="nonzero"/></clipPath><clipPath id="b6dbe2a5d5"><path d="M 55.015625 0 L 107.058594 0 L 107.058594 52.003906 L 55.015625 52.003906 Z M 55.015625 0 " clip-rule="nonzero"/></clipPath><clipPath id="22cd32fb0d"><path d="M 107.058594 0 L 159.101562 0 L 159.101562 52.003906 L 107.058594 52.003906 Z M 107.058594 0 " clip-rule="nonzero"/></clipPath><clipPath id="b6454e6394"><path d="M 159.101562 0 L 211.144531 0 L 211.144531 52.003906 L 159.101562 52.003906 Z M 159.101562 0 " clip-rule="nonzero"/></clipPath><clipPath id="0206835a39"><path d="M 211.144531 0 L 263.1875 0 L 263.1875 52.003906 L 211.144531 52.003906 Z M 211.144531 0 " clip-rule="nonzero"/></clipPath><clipPath id="0afb9eed68"><path d="M 263.1875 0 L 315.230469 0 L 315.230469 52.003906 L 263.1875 52.003906 Z M 263.1875 0 " clip-rule="nonzero"/></clipPath><clipPath id="fb02345c78"><path d="M 315.230469 0 L 367.269531 0 L 367.269531 52.003906 L 315.230469 52.003906 Z M 315.230469 0 " clip-rule="nonzero"/></clipPath><clipPath id="6eef61cc4b"><path d="M 367.269531 0 L 419.3125 0 L 419.3125 52.003906 L 367.269531 52.003906 Z M 367.269531 0 " clip-rule="nonzero"/></clipPath><clipPath id="9084195a88"><path d="M 419.3125 0 L 471.355469 0 L 471.355469 52.003906 L 419.3125 52.003906 Z M 419.3125 0 " clip-rule="nonzero"/></clipPath><clipPath id="507e742402"><path d="M 471.355469 0 L 523.398438 0 L 523.398438 52.003906 L 471.355469 52.003906 Z M 471.355469 0 " clip-rule="nonzero"/></clipPath><clipPath id="8d49d87968"><path d="M 523.398438 0 L 575.441406 0 L 575.441406 52.003906 L 523.398438 52.003906 Z M 523.398438 0 " clip-rule="nonzero"/></clipPath><clipPath id="51576a28cf"><path d="M 575.441406 0 L 627.484375 0 L 627.484375 52.003906 L 575.441406 52.003906 Z M 575.441406 0 " clip-rule="nonzero"/></clipPath><clipPath id="a7f931969c"><path d="M 627.484375 0 L 679.03125 0 L 679.03125 52.003906 L 627.484375 52.003906 Z M 627.484375 0 " clip-rule="nonzero"/></clipPath></defs><g clip-path="url(#b0f2dc8854)"><path fill="#ffffff" d="M 2.972656 0 L 679.527344 0 L 679.527344 52.042969 L 2.972656 52.042969 Z M 2.972656 0 " fill-opacity="1" fill-rule="nonzero"/><path fill="#ffffff" d="M 2.972656 0 L 679.527344 0 L 679.527344 52.042969 L 2.972656 52.042969 Z M 2.972656 0 " fill-opacity="1" fill-rule="nonzero"/></g><g clip-path="url(#ee51869264)"><path fill="#545454" d="M 2.972656 0 L 55.015625 0 L 55.015625 52.042969 L 2.972656 52.042969 Z M 2.972656 0 " fill-opacity="1" fill-rule="nonzero"/></g><g fill="#ffffff" fill-opacity="1"><g transform="translate(24.474217, 30.482218)"><g><path d="M 4.6875 -9.46875 C 5.414062 -9.46875 6.046875 -9.351562 6.578125 -9.125 C 7.117188 -8.894531 7.535156 -8.566406 7.828125 -8.140625 C 8.117188 -7.722656 8.265625 -7.234375 8.265625 -6.671875 C 8.265625 -6.148438 8.132812 -5.675781 7.875 -5.25 C 7.613281 -4.820312 7.285156 -4.445312 6.890625 -4.125 C 6.492188 -3.800781 5.945312 -3.40625 5.25 -2.9375 C 4.863281 -2.6875 4.546875 -2.46875 4.296875 -2.28125 L 8.375 -2.28125 L 8.375 0 L 0.65625 0 L 0.65625 -0.65625 C 0.65625 -1.125 0.765625 -1.546875 0.984375 -1.921875 C 1.210938 -2.296875 1.539062 -2.675781 1.96875 -3.0625 C 2.394531 -3.4375 3.015625 -3.945312 3.828125 -4.59375 C 4.472656 -5.113281 4.925781 -5.507812 5.1875 -5.78125 C 5.457031 -6.050781 5.59375 -6.316406 5.59375 -6.578125 C 5.59375 -6.859375 5.492188 -7.09375 5.296875 -7.28125 C 5.097656 -7.46875 4.804688 -7.5625 4.421875 -7.5625 C 4.015625 -7.5625 3.691406 -7.441406 3.453125 -7.203125 C 3.222656 -6.972656 3.109375 -6.671875 3.109375 -6.296875 L 3.109375 -6.015625 L 0.703125 -6.015625 C 0.691406 -6.085938 0.6875 -6.1875 0.6875 -6.3125 C 0.6875 -7.289062 1.023438 -8.0625 1.703125 -8.625 C 2.390625 -9.1875 3.382812 -9.46875 4.6875 -9.46875 Z M 4.6875 -9.46875 "/></g></g></g><g clip-path="url(#b6dbe2a5d5)"><path fill="#ff3131" d="M 55.015625 0 L 107.058594 0 L 107.058594 52.042969 L 55.015625 52.042969 Z M 55.015625 0 " fill-opacity="1" fill-rule="nonzero"/></g><g fill="#ffffff" fill-opacity="1"><g transform="translate(72.009748, 30.482218)"><g><path d="M 8.4375 -2.078125 L 8.4375 0 L 1.421875 0 L 1.421875 -2.078125 L 3.625 -2.078125 L 3.625 -6.296875 L 1.421875 -6.296875 L 1.421875 -7.859375 C 2.023438 -7.898438 2.703125 -8.0625 3.453125 -8.34375 C 4.203125 -8.625 4.851562 -8.953125 5.40625 -9.328125 L 6.3125 -9.328125 L 6.3125 -2.078125 Z M 8.4375 -2.078125 "/></g></g></g><g fill="#ffffff" fill-opacity="1"><g transform="translate(81.028822, 30.482218)"><g><path d="M 8.4375 -2.078125 L 8.4375 0 L 1.421875 0 L 1.421875 -2.078125 L 3.625 -2.078125 L 3.625 -6.296875 L 1.421875 -6.296875 L 1.421875 -7.859375 C 2.023438 -7.898438 2.703125 -8.0625 3.453125 -8.34375 C 4.203125 -8.625 4.851562 -8.953125 5.40625 -9.328125 L 6.3125 -9.328125 L 6.3125 -2.078125 Z M 8.4375 -2.078125 "/></g></g></g><g clip-path="url(#22cd32fb0d)"><path fill="#545454" d="M 107.058594 0 L 159.101562 0 L 159.101562 52.042969 L 107.058594 52.042969 Z M 107.058594 0 " fill-opacity="1" fill-rule="nonzero"/></g><g fill="#ffffff" fill-opacity="1"><g transform="translate(128.559838, 30.482218)"><g><path d="M 5.5625 -9.46875 C 5.5 -9 5.28125 -8.414062 4.90625 -7.71875 C 4.539062 -7.019531 4.101562 -6.320312 3.59375 -5.625 C 3.082031 -4.925781 2.609375 -4.347656 2.171875 -3.890625 L 4.84375 -3.890625 L 4.84375 -5.828125 C 5.125 -6.222656 5.40625 -6.691406 5.6875 -7.234375 C 5.976562 -7.773438 6.171875 -8.222656 6.265625 -8.578125 L 7.421875 -8.578125 L 7.421875 -3.890625 L 8.71875 -3.890625 L 8.71875 -1.90625 L 7.421875 -1.90625 L 7.421875 0 L 4.84375 0 L 4.84375 -1.90625 L 0.3125 -1.90625 L 0.3125 -3.921875 C 0.800781 -4.628906 1.28125 -5.484375 1.75 -6.484375 C 2.226562 -7.484375 2.613281 -8.476562 2.90625 -9.46875 Z M 5.5625 -9.46875 "/></g></g></g><g clip-path="url(#b6454e6394)"><path fill="#ff3131" d="M 159.101562 0 L 211.144531 0 L 211.144531 52.042969 L 159.101562 52.042969 Z M 159.101562 0 " fill-opacity="1" fill-rule="nonzero"/></g><g fill="#ffffff" fill-opacity="1"><g transform="translate(180.602653, 30.482218)"><g><path d="M 4.4375 -9.46875 C 5.800781 -9.46875 6.8125 -9.09375 7.46875 -8.34375 C 8.132812 -7.601562 8.46875 -6.453125 8.46875 -4.890625 C 8.46875 -3.109375 8.140625 -1.820312 7.484375 -1.03125 C 6.835938 -0.238281 5.820312 0.15625 4.4375 0.15625 C 3.3125 0.15625 2.410156 -0.113281 1.734375 -0.65625 C 1.054688 -1.195312 0.71875 -1.972656 0.71875 -2.984375 L 3.125 -2.984375 L 3.125 -2.875 C 3.125 -2.53125 3.234375 -2.242188 3.453125 -2.015625 C 3.671875 -1.785156 3.984375 -1.671875 4.390625 -1.671875 C 4.816406 -1.671875 5.148438 -1.816406 5.390625 -2.109375 C 5.628906 -2.398438 5.75 -2.789062 5.75 -3.28125 L 5.75 -4.078125 C 5.488281 -3.835938 5.175781 -3.660156 4.8125 -3.546875 C 4.457031 -3.429688 4.113281 -3.375 3.78125 -3.375 C 3.164062 -3.375 2.609375 -3.484375 2.109375 -3.703125 C 1.609375 -3.921875 1.210938 -4.242188 0.921875 -4.671875 C 0.628906 -5.097656 0.484375 -5.613281 0.484375 -6.21875 C 0.484375 -7.25 0.835938 -8.046875 1.546875 -8.609375 C 2.253906 -9.179688 3.21875 -9.46875 4.4375 -9.46875 Z M 4.421875 -7.640625 C 3.992188 -7.640625 3.664062 -7.523438 3.4375 -7.296875 C 3.207031 -7.066406 3.09375 -6.738281 3.09375 -6.3125 C 3.09375 -5.894531 3.207031 -5.570312 3.4375 -5.34375 C 3.664062 -5.113281 3.988281 -5 4.40625 -5 C 4.84375 -5 5.175781 -5.109375 5.40625 -5.328125 C 5.632812 -5.546875 5.75 -5.867188 5.75 -6.296875 C 5.75 -6.710938 5.632812 -7.039062 5.40625 -7.28125 C 5.175781 -7.519531 4.847656 -7.640625 4.421875 -7.640625 Z M 4.421875 -7.640625 "/></g></g></g><g clip-path="url(#0206835a39)"><path fill="#545454" d="M 211.144531 0 L 263.1875 0 L 263.1875 52.042969 L 211.144531 52.042969 Z M 211.144531 0 " fill-opacity="1" fill-rule="nonzero"/></g><g fill="#ffffff" fill-opacity="1"><g transform="translate(232.645457, 30.482218)"><g><path d="M 4.59375 -9.46875 C 5.71875 -9.46875 6.617188 -9.191406 7.296875 -8.640625 C 7.972656 -8.097656 8.3125 -7.328125 8.3125 -6.328125 L 5.90625 -6.328125 L 5.90625 -6.421875 C 5.90625 -6.773438 5.796875 -7.066406 5.578125 -7.296875 C 5.359375 -7.523438 5.039062 -7.640625 4.625 -7.640625 C 4.195312 -7.640625 3.863281 -7.492188 3.625 -7.203125 C 3.394531 -6.910156 3.28125 -6.515625 3.28125 -6.015625 L 3.28125 -5.234375 C 3.539062 -5.472656 3.847656 -5.648438 4.203125 -5.765625 C 4.566406 -5.878906 4.910156 -5.9375 5.234375 -5.9375 C 5.859375 -5.9375 6.421875 -5.828125 6.921875 -5.609375 C 7.421875 -5.390625 7.8125 -5.0625 8.09375 -4.625 C 8.382812 -4.195312 8.53125 -3.679688 8.53125 -3.078125 C 8.53125 -2.054688 8.175781 -1.257812 7.46875 -0.6875 C 6.757812 -0.125 5.800781 0.15625 4.59375 0.15625 C 3.226562 0.15625 2.210938 -0.210938 1.546875 -0.953125 C 0.890625 -1.691406 0.5625 -2.847656 0.5625 -4.421875 C 0.5625 -6.203125 0.882812 -7.488281 1.53125 -8.28125 C 2.1875 -9.070312 3.207031 -9.46875 4.59375 -9.46875 Z M 4.59375 -4.3125 C 4.175781 -4.3125 3.851562 -4.195312 3.625 -3.96875 C 3.394531 -3.738281 3.28125 -3.410156 3.28125 -2.984375 C 3.28125 -2.566406 3.390625 -2.242188 3.609375 -2.015625 C 3.835938 -1.785156 4.164062 -1.671875 4.59375 -1.671875 C 5.019531 -1.671875 5.347656 -1.78125 5.578125 -2 C 5.804688 -2.21875 5.921875 -2.539062 5.921875 -2.96875 C 5.921875 -3.382812 5.804688 -3.710938 5.578125 -3.953125 C 5.347656 -4.191406 5.019531 -4.3125 4.59375 -4.3125 Z M 4.59375 -4.3125 "/></g></g></g><g clip-path="url(#0afb9eed68)"><path fill="#ff3131" d="M 263.1875 0 L 315.230469 0 L 315.230469 52.042969 L 263.1875 52.042969 Z M 263.1875 0 " fill-opacity="1" fill-rule="nonzero"/></g><g fill="#ffffff" fill-opacity="1"><g transform="translate(284.688274, 30.482218)"><g><path d="M 8.453125 -8.078125 C 7.429688 -6.804688 6.625 -5.585938 6.03125 -4.421875 C 5.4375 -3.253906 5.140625 -2.046875 5.140625 -0.796875 L 5.140625 0 L 2.140625 0 C 2.140625 -1.226562 2.398438 -2.4375 2.921875 -3.625 C 3.453125 -4.8125 4.171875 -5.929688 5.078125 -6.984375 L 0.609375 -6.984375 L 0.609375 -9.3125 L 8.453125 -9.3125 Z M 8.453125 -8.078125 "/></g></g></g><g clip-path="url(#fb02345c78)"><path fill="#545454" d="M 315.230469 0 L 367.269531 0 L 367.269531 52.042969 L 315.230469 52.042969 Z M 315.230469 0 " fill-opacity="1" fill-rule="nonzero"/></g><g fill="#ffffff" fill-opacity="1"><g transform="translate(336.731092, 30.482218)"><g><path d="M 4.5 -9.46875 C 5.164062 -9.46875 5.773438 -9.359375 6.328125 -9.140625 C 6.878906 -8.929688 7.316406 -8.617188 7.640625 -8.203125 C 7.960938 -7.796875 8.125 -7.300781 8.125 -6.71875 C 8.125 -6.25 8.023438 -5.875 7.828125 -5.59375 C 7.640625 -5.3125 7.359375 -5.035156 6.984375 -4.765625 L 6.984375 -4.703125 C 7.472656 -4.429688 7.84375 -4.132812 8.09375 -3.8125 C 8.34375 -3.488281 8.46875 -3.070312 8.46875 -2.5625 C 8.46875 -1.6875 8.109375 -1.015625 7.390625 -0.546875 C 6.679688 -0.078125 5.71875 0.15625 4.5 0.15625 C 3.269531 0.15625 2.304688 -0.078125 1.609375 -0.546875 C 0.910156 -1.015625 0.5625 -1.6875 0.5625 -2.5625 C 0.5625 -3.070312 0.679688 -3.488281 0.921875 -3.8125 C 1.160156 -4.132812 1.53125 -4.429688 2.03125 -4.703125 L 2.03125 -4.765625 C 1.65625 -5.035156 1.367188 -5.3125 1.171875 -5.59375 C 0.984375 -5.875 0.890625 -6.25 0.890625 -6.71875 C 0.890625 -7.300781 1.046875 -7.796875 1.359375 -8.203125 C 1.679688 -8.617188 2.113281 -8.929688 2.65625 -9.140625 C 3.207031 -9.359375 3.820312 -9.46875 4.5 -9.46875 Z M 4.5 -7.640625 C 4.101562 -7.640625 3.796875 -7.554688 3.578125 -7.390625 C 3.359375 -7.222656 3.25 -6.960938 3.25 -6.609375 C 3.25 -6.273438 3.363281 -6.023438 3.59375 -5.859375 C 3.820312 -5.691406 4.125 -5.609375 4.5 -5.609375 C 4.863281 -5.609375 5.164062 -5.691406 5.40625 -5.859375 C 5.65625 -6.023438 5.78125 -6.273438 5.78125 -6.609375 C 5.78125 -6.960938 5.660156 -7.222656 5.421875 -7.390625 C 5.191406 -7.554688 4.882812 -7.640625 4.5 -7.640625 Z M 4.5 -3.890625 C 4.144531 -3.890625 3.847656 -3.789062 3.609375 -3.59375 C 3.367188 -3.394531 3.25 -3.125 3.25 -2.78125 C 3.25 -2.425781 3.359375 -2.148438 3.578125 -1.953125 C 3.804688 -1.765625 4.113281 -1.671875 4.5 -1.671875 C 4.875 -1.671875 5.179688 -1.765625 5.421875 -1.953125 C 5.660156 -2.148438 5.78125 -2.425781 5.78125 -2.78125 C 5.78125 -3.125 5.65625 -3.394531 5.40625 -3.59375 C 5.15625 -3.789062 4.851562 -3.890625 4.5 -3.890625 Z M 4.5 -3.890625 "/></g></g></g><g clip-path="url(#6eef61cc4b)"><path fill="#ff3131" d="M 367.269531 0 L 419.3125 0 L 419.3125 52.042969 L 367.269531 52.042969 Z M 367.269531 0 " fill-opacity="1" fill-rule="nonzero"/></g><g fill="#ffffff" fill-opacity="1"><g transform="translate(388.773879, 30.482218)"><g><path d="M 3.34375 -7.015625 L 3.234375 -5.609375 C 3.234375 -5.617188 3.320312 -5.675781 3.5 -5.78125 C 3.6875 -5.882812 3.925781 -5.976562 4.21875 -6.0625 C 4.519531 -6.15625 4.851562 -6.203125 5.21875 -6.203125 C 6.21875 -6.203125 7.003906 -5.921875 7.578125 -5.359375 C 8.160156 -4.796875 8.453125 -4.023438 8.453125 -3.046875 C 8.453125 -2.453125 8.296875 -1.910156 7.984375 -1.421875 C 7.671875 -0.929688 7.222656 -0.546875 6.640625 -0.265625 C 6.066406 0.015625 5.398438 0.15625 4.640625 0.15625 C 3.316406 0.15625 2.300781 -0.125 1.59375 -0.6875 C 0.882812 -1.257812 0.53125 -2.03125 0.53125 -3 L 2.90625 -3 C 2.90625 -2.632812 3.03125 -2.328125 3.28125 -2.078125 C 3.539062 -1.828125 3.898438 -1.703125 4.359375 -1.703125 C 4.816406 -1.703125 5.171875 -1.828125 5.421875 -2.078125 C 5.671875 -2.335938 5.796875 -2.671875 5.796875 -3.078125 C 5.796875 -3.492188 5.671875 -3.832031 5.421875 -4.09375 C 5.171875 -4.351562 4.820312 -4.484375 4.375 -4.484375 C 4.03125 -4.484375 3.769531 -4.425781 3.59375 -4.3125 C 3.414062 -4.195312 3.285156 -4.085938 3.203125 -3.984375 C 3.128906 -3.890625 3.085938 -3.828125 3.078125 -3.796875 L 0.9375 -4.09375 L 1.328125 -9.3125 L 7.765625 -9.3125 L 7.765625 -7.015625 Z M 3.34375 -7.015625 "/></g></g></g><g clip-path="url(#9084195a88)"><path fill="#545454" d="M 419.3125 0 L 471.355469 0 L 471.355469 52.042969 L 419.3125 52.042969 Z M 419.3125 0 " fill-opacity="1" fill-rule="nonzero"/></g><g fill="#ffffff" fill-opacity="1"><g transform="translate(436.309422, 30.482218)"><g><path d="M 8.4375 -2.078125 L 8.4375 0 L 1.421875 0 L 1.421875 -2.078125 L 3.625 -2.078125 L 3.625 -6.296875 L 1.421875 -6.296875 L 1.421875 -7.859375 C 2.023438 -7.898438 2.703125 -8.0625 3.453125 -8.34375 C 4.203125 -8.625 4.851562 -8.953125 5.40625 -9.328125 L 6.3125 -9.328125 L 6.3125 -2.078125 Z M 8.4375 -2.078125 "/></g></g></g><g fill="#ffffff" fill-opacity="1"><g transform="translate(445.328496, 30.482218)"><g><path d="M 4.515625 -9.46875 C 5.972656 -9.46875 6.992188 -9.054688 7.578125 -8.234375 C 8.171875 -7.410156 8.46875 -6.21875 8.46875 -4.65625 C 8.46875 -3.09375 8.171875 -1.898438 7.578125 -1.078125 C 6.992188 -0.253906 5.972656 0.15625 4.515625 0.15625 C 3.054688 0.15625 2.03125 -0.253906 1.4375 -1.078125 C 0.851562 -1.898438 0.5625 -3.09375 0.5625 -4.65625 C 0.5625 -6.21875 0.851562 -7.410156 1.4375 -8.234375 C 2.03125 -9.054688 3.054688 -9.46875 4.515625 -9.46875 Z M 4.515625 -7.640625 C 4.046875 -7.640625 3.710938 -7.457031 3.515625 -7.09375 C 3.316406 -6.738281 3.21875 -6.148438 3.21875 -5.328125 L 3.21875 -3.984375 C 3.21875 -3.160156 3.316406 -2.566406 3.515625 -2.203125 C 3.710938 -1.847656 4.046875 -1.671875 4.515625 -1.671875 C 4.984375 -1.671875 5.3125 -1.847656 5.5 -2.203125 C 5.695312 -2.566406 5.796875 -3.160156 5.796875 -3.984375 L 5.796875 -5.328125 C 5.796875 -6.160156 5.695312 -6.753906 5.5 -7.109375 C 5.3125 -7.460938 4.984375 -7.640625 4.515625 -7.640625 Z M 4.515625 -7.640625 "/></g></g></g><g clip-path="url(#507e742402)"><path fill="#ff3131" d="M 471.355469 0 L 523.398438 0 L 523.398438 52.042969 L 471.355469 52.042969 Z M 471.355469 0 " fill-opacity="1" fill-rule="nonzero"/></g><g fill="#ffffff" fill-opacity="1"><g transform="translate(492.859524, 30.482218)"><g><path d="M 4.59375 -9.46875 C 5.332031 -9.46875 5.972656 -9.351562 6.515625 -9.125 C 7.054688 -8.90625 7.46875 -8.601562 7.75 -8.21875 C 8.039062 -7.832031 8.1875 -7.40625 8.1875 -6.9375 C 8.1875 -6.46875 8.054688 -6.046875 7.796875 -5.671875 C 7.546875 -5.296875 7.222656 -5.035156 6.828125 -4.890625 L 6.828125 -4.828125 C 7.347656 -4.671875 7.75 -4.390625 8.03125 -3.984375 C 8.3125 -3.578125 8.453125 -3.09375 8.453125 -2.53125 C 8.421875 -1.738281 8.078125 -1.09375 7.421875 -0.59375 C 6.765625 -0.09375 5.800781 0.15625 4.53125 0.15625 C 3.65625 0.15625 2.921875 0.0390625 2.328125 -0.1875 C 1.734375 -0.425781 1.289062 -0.75 1 -1.15625 C 0.707031 -1.5625 0.5625 -2.015625 0.5625 -2.515625 L 0.5625 -2.796875 L 2.953125 -2.796875 C 2.953125 -2.054688 3.421875 -1.6875 4.359375 -1.6875 C 5.296875 -1.6875 5.765625 -2.101562 5.765625 -2.9375 C 5.765625 -3.25 5.675781 -3.488281 5.5 -3.65625 C 5.320312 -3.820312 5.09375 -3.90625 4.8125 -3.90625 L 3.828125 -3.90625 L 3.828125 -5.578125 L 4.59375 -5.578125 C 4.875 -5.578125 5.101562 -5.660156 5.28125 -5.828125 C 5.457031 -5.992188 5.546875 -6.234375 5.546875 -6.546875 C 5.546875 -6.847656 5.4375 -7.101562 5.21875 -7.3125 C 5.007812 -7.519531 4.722656 -7.625 4.359375 -7.625 C 3.972656 -7.625 3.671875 -7.519531 3.453125 -7.3125 C 3.234375 -7.113281 3.125 -6.875 3.125 -6.59375 L 0.859375 -6.59375 L 0.859375 -6.921875 C 0.859375 -7.390625 1.003906 -7.816406 1.296875 -8.203125 C 1.597656 -8.597656 2.03125 -8.90625 2.59375 -9.125 C 3.15625 -9.351562 3.820312 -9.46875 4.59375 -9.46875 Z M 4.59375 -9.46875 "/></g></g></g><g clip-path="url(#8d49d87968)"><path fill="#545454" d="M 523.398438 0 L 575.441406 0 L 575.441406 52.042969 L 523.398438 52.042969 Z M 523.398438 0 " fill-opacity="1" fill-rule="nonzero"/></g><g fill="#ffffff" fill-opacity="1"><g transform="translate(540.395043, 30.482218)"><g><path d="M 8.4375 -2.078125 L 8.4375 0 L 1.421875 0 L 1.421875 -2.078125 L 3.625 -2.078125 L 3.625 -6.296875 L 1.421875 -6.296875 L 1.421875 -7.859375 C 2.023438 -7.898438 2.703125 -8.0625 3.453125 -8.34375 C 4.203125 -8.625 4.851562 -8.953125 5.40625 -9.328125 L 6.3125 -9.328125 L 6.3125 -2.078125 Z M 8.4375 -2.078125 "/></g></g></g><g fill="#ffffff" fill-opacity="1"><g transform="translate(549.414117, 30.482218)"><g><path d="M 4.6875 -9.46875 C 5.414062 -9.46875 6.046875 -9.351562 6.578125 -9.125 C 7.117188 -8.894531 7.535156 -8.566406 7.828125 -8.140625 C 8.117188 -7.722656 8.265625 -7.234375 8.265625 -6.671875 C 8.265625 -6.148438 8.132812 -5.675781 7.875 -5.25 C 7.613281 -4.820312 7.285156 -4.445312 6.890625 -4.125 C 6.492188 -3.800781 5.945312 -3.40625 5.25 -2.9375 C 4.863281 -2.6875 4.546875 -2.46875 4.296875 -2.28125 L 8.375 -2.28125 L 8.375 0 L 0.65625 0 L 0.65625 -0.65625 C 0.65625 -1.125 0.765625 -1.546875 0.984375 -1.921875 C 1.210938 -2.296875 1.539062 -2.675781 1.96875 -3.0625 C 2.394531 -3.4375 3.015625 -3.945312 3.828125 -4.59375 C 4.472656 -5.113281 4.925781 -5.507812 5.1875 -5.78125 C 5.457031 -6.050781 5.59375 -6.316406 5.59375 -6.578125 C 5.59375 -6.859375 5.492188 -7.09375 5.296875 -7.28125 C 5.097656 -7.46875 4.804688 -7.5625 4.421875 -7.5625 C 4.015625 -7.5625 3.691406 -7.441406 3.453125 -7.203125 C 3.222656 -6.972656 3.109375 -6.671875 3.109375 -6.296875 L 3.109375 -6.015625 L 0.703125 -6.015625 C 0.691406 -6.085938 0.6875 -6.1875 0.6875 -6.3125 C 0.6875 -7.289062 1.023438 -8.0625 1.703125 -8.625 C 2.390625 -9.1875 3.382812 -9.46875 4.6875 -9.46875 Z M 4.6875 -9.46875 "/></g></g></g><g clip-path="url(#51576a28cf)"><path fill="#ff3131" d="M 575.441406 0 L 627.484375 0 L 627.484375 52.042969 L 575.441406 52.042969 Z M 575.441406 0 " fill-opacity="1" fill-rule="nonzero"/></g><g fill="#ffffff" fill-opacity="1"><g transform="translate(596.945121, 30.482218)"><g><path d="M 8.4375 -2.078125 L 8.4375 0 L 1.421875 0 L 1.421875 -2.078125 L 3.625 -2.078125 L 3.625 -6.296875 L 1.421875 -6.296875 L 1.421875 -7.859375 C 2.023438 -7.898438 2.703125 -8.0625 3.453125 -8.34375 C 4.203125 -8.625 4.851562 -8.953125 5.40625 -9.328125 L 6.3125 -9.328125 L 6.3125 -2.078125 Z M 8.4375 -2.078125 "/></g></g></g><g clip-path="url(#a7f931969c)"><path fill="#3d892a" d="M 627.484375 0 L 679.527344 0 L 679.527344 52.042969 L 627.484375 52.042969 Z M 627.484375 0 " fill-opacity="1" fill-rule="nonzero"/></g><g fill="#ffffff" fill-opacity="1"><g transform="translate(644.480688, 30.482218)"><g><path d="M 8.4375 -2.078125 L 8.4375 0 L 1.421875 0 L 1.421875 -2.078125 L 3.625 -2.078125 L 3.625 -6.296875 L 1.421875 -6.296875 L 1.421875 -7.859375 C 2.023438 -7.898438 2.703125 -8.0625 3.453125 -8.34375 C 4.203125 -8.625 4.851562 -8.953125 5.40625 -9.328125 L 6.3125 -9.328125 L 6.3125 -2.078125 Z M 8.4375 -2.078125 "/></g></g></g><g fill="#ffffff" fill-opacity="1"><g transform="translate(653.499762, 30.482218)"><g><path d="M 4.59375 -9.46875 C 5.332031 -9.46875 5.972656 -9.351562 6.515625 -9.125 C 7.054688 -8.90625 7.46875 -8.601562 7.75 -8.21875 C 8.039062 -7.832031 8.1875 -7.40625 8.1875 -6.9375 C 8.1875 -6.46875 8.054688 -6.046875 7.796875 -5.671875 C 7.546875 -5.296875 7.222656 -5.035156 6.828125 -4.890625 L 6.828125 -4.828125 C 7.347656 -4.671875 7.75 -4.390625 8.03125 -3.984375 C 8.3125 -3.578125 8.453125 -3.09375 8.453125 -2.53125 C 8.421875 -1.738281 8.078125 -1.09375 7.421875 -0.59375 C 6.765625 -0.09375 5.800781 0.15625 4.53125 0.15625 C 3.65625 0.15625 2.921875 0.0390625 2.328125 -0.1875 C 1.734375 -0.425781 1.289062 -0.75 1 -1.15625 C 0.707031 -1.5625 0.5625 -2.015625 0.5625 -2.515625 L 0.5625 -2.796875 L 2.953125 -2.796875 C 2.953125 -2.054688 3.421875 -1.6875 4.359375 -1.6875 C 5.296875 -1.6875 5.765625 -2.101562 5.765625 -2.9375 C 5.765625 -3.25 5.675781 -3.488281 5.5 -3.65625 C 5.320312 -3.820312 5.09375 -3.90625 4.8125 -3.90625 L 3.828125 -3.90625 L 3.828125 -5.578125 L 4.59375 -5.578125 C 4.875 -5.578125 5.101562 -5.660156 5.28125 -5.828125 C 5.457031 -5.992188 5.546875 -6.234375 5.546875 -6.546875 C 5.546875 -6.847656 5.4375 -7.101562 5.21875 -7.3125 C 5.007812 -7.519531 4.722656 -7.625 4.359375 -7.625 C 3.972656 -7.625 3.671875 -7.519531 3.453125 -7.3125 C 3.234375 -7.113281 3.125 -6.875 3.125 -6.59375 L 0.859375 -6.59375 L 0.859375 -6.921875 C 0.859375 -7.390625 1.003906 -7.816406 1.296875 -8.203125 C 1.597656 -8.597656 2.03125 -8.90625 2.59375 -9.125 C 3.15625 -9.351562 3.820312 -9.46875 4.59375 -9.46875 Z M 4.59375 -9.46875 "/></g></g></g></svg>